<?xml version="1.0" encoding="UTF-8"?>
<svg version="1.1" xmlns="http://www.w3.org/2000/svg" width="50" height="50">
<path d="M0 0 C16.5 0 33 0 50 0 C50 16.5 50 33 50 50 C33.5 50 17 50 0 50 C0 33.5 0 17 0 0 Z " fill="#3D3D3D" transform="translate(0,0)"/>
<path d="M0 0 C7.26 0 14.52 0 22 0 C21.67 0.99 21.34 1.98 21 3 C19.02 3.33 17.04 3.66 15 4 C14.67 5.32 14.34 6.64 14 8 C12.02 8 10.04 8 8 8 C8 10.64 8 13.28 8 16 C7.34 16.33 6.68 16.66 6 17 C6.32613281 17.52335937 6.65226563 18.04671875 6.98828125 18.5859375 C8.29849523 21.71223959 8.22946364 24.24501929 8.1875 27.625 C8.17783203 29.34589844 8.17783203 29.34589844 8.16796875 31.1015625 C8 34 8 34 7 36 C11.29 36 15.58 36 20 36 C19.67 35.34 19.34 34.68 19 34 C18.5475763 27.77917415 18.5475763 27.77917415 20.125 25.0625 C22.88980433 23.49577755 24.88188517 23.61023565 28 24 C29.6796875 25.03125 29.6796875 25.03125 31 27 C31.19278961 29.70489663 31.23655771 32.18306407 31.125 34.875 C30.98310323 39.45743093 31.08951679 43.44758395 32 48 C37.94 48.33 43.88 48.66 50 49 C50 49.33 50 49.66 50 50 C33.5 50 17 50 0 50 C0 33.5 0 17 0 0 Z " fill="#F8F8F8" transform="translate(0,0)"/>
<path d="M0 0 C7.26 0 14.52 0 22 0 C22 15.84 22 31.68 22 48 C16.39 48 10.78 48 5 48 C5 44.04 5 40.08 5 36 C8.3 36 11.6 36 15 36 C14.67 35.34 14.34 34.68 14 34 C13.8770062 31.87764193 13.82444318 29.75088537 13.8125 27.625 C13.79832031 26.48289062 13.78414062 25.34078125 13.76953125 24.1640625 C13.98829966 21.16063184 14.42919363 19.52074066 16 17 C15.34 16.67 14.68 16.34 14 16 C14 13.36 14 10.72 14 8 C12.02 8 10.04 8 8 8 C7.67 6.68 7.34 5.36 7 4 C4.69 3.34 2.38 2.68 0 2 C0 1.34 0 0.68 0 0 Z " fill="#FBFBFB" transform="translate(28,0)"/>
<path d="M0 0 C7.26 0 14.52 0 22 0 C21.67 0.99 21.34 1.98 21 3 C19.02 3.33 17.04 3.66 15 4 C14.67 5.32 14.34 6.64 14 8 C12.02 8 10.04 8 8 8 C8 10.64 8 13.28 8 16 C7.34 16.33 6.68 16.66 6 17 C6.48895752 17.82902832 6.48895752 17.82902832 6.98779297 18.67480469 C8.16480959 21.378593 8.22949426 23.26349406 8.1953125 26.203125 C8.18564453 27.67265625 8.18564453 27.67265625 8.17578125 29.171875 C8.15902344 30.18765625 8.14226563 31.2034375 8.125 32.25 C8.11597656 33.28125 8.10695313 34.3125 8.09765625 35.375 C8.07412011 37.91690287 8.04124023 40.4583328 8 43 C7.34 43 6.68 43 6 43 C6 43.66 6 44.32 6 45 C6.66 45 7.32 45 8 45 C8 45.99 8 46.98 8 48 C5.36 48 2.72 48 0 48 C0 32.16 0 16.32 0 0 Z " fill="#FCFCFC" transform="translate(0,0)"/>
<path d="M0 0 C1.98 0 3.96 0 6 0 C6.33 0.66 6.66 1.32 7 2 C9.3140622 2.73075648 11.64828869 3.40138258 14 4 C14 5.32 14 6.64 14 8 C15.98 8 17.96 8 20 8 C19.67 9.65 19.34 11.3 19 13 C8.44 13 -2.12 13 -13 13 C-13.33 11.35 -13.66 9.7 -14 8 C-12.02 8 -10.04 8 -8 8 C-7.67 6.35 -7.34 4.7 -7 3 C-5.02 3 -3.04 3 -1 3 C-0.67 2.01 -0.34 1.02 0 0 Z " fill="#363636" transform="translate(22,0)"/>
<path d="M0 0 C9.9 0 19.8 0 30 0 C30 4.29 30 8.58 30 13 C27.69 13 25.38 13 23 13 C22.938125 11.9275 22.87625 10.855 22.8125 9.75 C22.30387698 5.94017592 22.30387698 5.94017592 19.8125 3.5 C17.07149306 1.74423007 17.07149306 1.74423007 13.875 2.0625 C10.27581736 3.20093373 10.27581736 3.20093373 8 6 C7.26958147 9.61023099 7.26958147 9.61023099 7 13 C4.69 13 2.38 13 0 13 C0 8.71 0 4.42 0 0 Z " fill="#C1C1C1" transform="translate(10,21)"/>
<path d="M0 0 C0.66 0 1.32 0 2 0 C2 4.29 2 8.58 2 13 C4.31 13 6.62 13 9 13 C8.87625 11.948125 8.7525 10.89625 8.625 9.8125 C9 6 9 6 11.625 3 C15 1 15 1 18.125 0.9375 C21.61387994 2.22686867 22.84310129 2.93903949 25 6 C25.4993558 9.59375588 25.37530093 13.13073086 25.25 16.75 C25.23195313 17.73355469 25.21390625 18.71710937 25.1953125 19.73046875 C25.14824126 22.15463783 25.08250742 24.57682059 25 27 C27.31 27 29.62 27 32 27 C32.33 26.34 32.66 25.68 33 25 C33 25.66 33 26.32 33 27 C35.97 27 38.94 27 42 27 C42 27.33 42 27.66 42 28 C28.47 28 14.94 28 1 28 C1 27.67 1 27.34 1 27 C8.59 27 16.18 27 24 27 C24 25.68 24 24.36 24 23 C23.34 22.67 22.68 22.34 22 22 C22.02320312 20.86820313 22.04640625 19.73640625 22.0703125 18.5703125 C22.08906901 17.08854825 22.10726934 15.60677688 22.125 14.125 C22.14175781 13.37863281 22.15851562 12.63226563 22.17578125 11.86328125 C22.1933959 9.90805539 22.10320189 7.95257979 22 6 C20.11499729 3.68436913 20.11499729 3.68436913 17 3.75 C13.88500271 3.68436913 13.88500271 3.68436913 12 6 C11.75746187 8.21072977 11.75746187 8.21072977 11.875 10.625 C11.90207031 11.85089844 11.90207031 11.85089844 11.9296875 13.1015625 C11.95289063 13.72804688 11.97609375 14.35453125 12 15 C11.34 15 10.68 15 10 15 C10 17.31 10 19.62 10 22 C9.67 22 9.34 22 9 22 C9 19.69 9 17.38 9 15 C6.69 15 4.38 15 2 15 C2 16.98 2 18.96 2 21 C1.67 21 1.34 21 1 21 C1 19.02 1 17.04 1 15 C0.34 15 -0.32 15 -1 15 C-0.67 10.05 -0.34 5.1 0 0 Z " fill="#262626" transform="translate(8,21)"/>
<path d="M0 0 C3.63 0 7.26 0 11 0 C12.125 8.625 12.125 8.625 11 12 C21.23 12.33 31.46 12.66 42 13 C42 13.33 42 13.66 42 14 C25.5 14 9 14 -8 14 C-8 13.34 -8 12.68 -8 12 C-5.36 12 -2.72 12 0 12 C0 11.01 0 10.02 0 9 C-0.66 9 -1.32 9 -2 9 C-2 8.34 -2 7.68 -2 7 C-1.34 7 -0.68 7 0 7 C0 4.69 0 2.38 0 0 Z " fill="#676767" transform="translate(8,36)"/>
<path d="M0 0 C11.88 0 23.76 0 36 0 C35.67 0.99 35.34 1.98 35 3 C23.78 3 12.56 3 1 3 C0.67 2.01 0.34 1.02 0 0 Z " fill="#D6D6D6" transform="translate(7,17)"/>
<path d="M0 0 C2.97 0 5.94 0 9 0 C10.42857143 8.57142857 10.42857143 8.57142857 8 12 C5.36 12 2.72 12 0 12 C0 8.04 0 4.08 0 0 Z " fill="#4A4A4A" transform="translate(33,36)"/>
<path d="M0 0 C10.56 0 21.12 0 32 0 C32 0.99 32 1.98 32 3 C21.44 3 10.88 3 0 3 C0 2.01 0 1.02 0 0 Z " fill="#E1E1E1" transform="translate(9,10)"/>
<path d="M0 0 C5.94 0 11.88 0 18 0 C18 0.99 18 1.98 18 3 C12.06 3 6.12 3 0 3 C0 2.01 0 1.02 0 0 Z " fill="#FEFEFE" transform="translate(16,5)"/>
<path d="M0 0 C0.66 0 1.32 0 2 0 C2.33 4.95 2.66 9.9 3 15 C2.34 15 1.68 15 1 15 C1 17.31 1 19.62 1 22 C0.67 22 0.34 22 0 22 C0 19.69 0 17.38 0 15 C-2.31 15 -4.62 15 -7 15 C-7 14.34 -7 13.68 -7 13 C-4.69 13 -2.38 13 0 13 C0 8.71 0 4.42 0 0 Z " fill="#373737" transform="translate(40,21)"/>
<path d="M0 0 C0.33 0 0.66 0 1 0 C1 2.97 1 5.94 1 9 C-1.31 9 -3.62 9 -6 9 C-6.33 6.36 -6.66 3.72 -7 1 C-4.69 1.33 -2.38 1.66 0 2 C0 1.34 0 0.68 0 0 Z " fill="#FDFDFD" transform="translate(39,25)"/>
<path d="M0 0 C0.33 0.99 0.66 1.98 1 3 C2.98 3 4.96 3 7 3 C7 5.31 7 7.62 7 10 C4.69 10 2.38 10 0 10 C0 6.7 0 3.4 0 0 Z " fill="#FDFDFD" transform="translate(10,24)"/>
<path d="M0 0 C2.31 0 4.62 0 7 0 C7 2.31 7 4.62 7 7 C4.69 7 2.38 7 0 7 C0 4.69 0 2.38 0 0 Z " fill="#FDFDFD" transform="translate(33,36)"/>
<path d="M0 0 C2.31 0 4.62 0 7 0 C7 2.31 7 4.62 7 7 C4.69 7 2.38 7 0 7 C0 4.69 0 2.38 0 0 Z " fill="#FDFDFD" transform="translate(10,36)"/>
<path d="M0 0 C3.96 0 7.92 0 12 0 C11.67 1.65 11.34 3.3 11 5 C9.375 5.75 9.375 5.75 7 6 C1.4109589 2.82191781 1.4109589 2.82191781 0 0 Z " fill="#B0B0B0" transform="translate(28,22)"/>
<path d="M0 0 C1.98 0 3.96 0 6 0 C6.33 0.99 6.66 1.98 7 3 C8.65 3.33 10.3 3.66 12 4 C12 4.33 12 4.66 12 5 C6.06 5 0.12 5 -6 5 C-6 4.67 -6 4.34 -6 4 C-4.02 3.67 -2.04 3.34 0 3 C0 2.01 0 1.02 0 0 Z " fill="#787878" transform="translate(22,0)"/>
<path d="M0 0 C2.31 0 4.62 0 7 0 C7 0.99 7 1.98 7 3 C4.69 3 2.38 3 0 3 C0 2.01 0 1.02 0 0 Z " fill="#F9F9F9" transform="translate(33,45)"/>
<path d="M0 0 C2.31 0 4.62 0 7 0 C7 0.99 7 1.98 7 3 C4.69 3 2.38 3 0 3 C0 2.01 0 1.02 0 0 Z " fill="#F9F9F9" transform="translate(10,45)"/>
</svg>
