<?xml version="1.0" encoding="UTF-8"?>
<svg version="1.1" xmlns="http://www.w3.org/2000/svg" width="50" height="50">
<path d="M0 0 C16.5 0 33 0 50 0 C50 16.5 50 33 50 50 C33.5 50 17 50 0 50 C0 33.5 0 17 0 0 Z " fill="#F9F9F9" transform="translate(0,0)"/>
<path d="M0 0 C0.99 0.33 1.98 0.66 3 1 C3 2.65 3 4.3 3 6 C3.7425 6.268125 4.485 6.53625 5.25 6.8125 C7.86636554 7.94229421 9.80187111 9.20893202 12 11 C12.33 10.01 12.66 9.02 13 8 C13.66 8 14.32 8 15 8 C15 11.63 15 15.26 15 19 C17.64 19 20.28 19 23 19 C23 19.33 23 19.66 23 20 C20.03 20.495 20.03 20.495 17 21 C17.33 21 17.66 21 18 21 C19.66666667 21 21.33333333 21 23 21 C23 22.32 23 23.64 23 25 C22.01 25.33 21.02 25.66 20 26 C20.99 26 21.98 26 23 26 C23 27.32 23 28.64 23 30 C22.01 30.33 21.02 30.66 20 31 C20.99 31 21.98 31 23 31 C23 31.66 23 32.32 23 33 C23.99 33 24.98 33 26 33 C26 35.97 26 38.94 26 42 C9.5 42 -7 42 -24 42 C-24 38.7 -24 35.4 -24 32 C-22.55625 31.835 -21.1125 31.67 -19.625 31.5 C-18.81289063 31.4071875 -18.00078125 31.314375 -17.1640625 31.21875 C-15 31 -15 31 -13 31 C-13 30.34 -13 29.68 -13 29 C-15.64 29 -18.28 29 -21 29 C-21 28.01 -21 27.02 -21 26 C-19.02 26 -17.04 26 -15 26 C-16.98 25.67 -18.96 25.34 -21 25 C-21 23.68 -21 22.36 -21 21 C-19.35 21 -17.7 21 -16 21 C-16 21.66 -16 22.32 -16 23 C-15.34 22.34 -14.68 21.68 -14 21 C-16.31 20.67 -18.62 20.34 -21 20 C-21 19.67 -21 19.34 -21 19 C-18.36 19 -15.72 19 -13 19 C-13 15.37 -13 11.74 -13 8 C-12.67 8 -12.34 8 -12 8 C-11.87625 8.78375 -11.7525 9.5675 -11.625 10.375 C-11.20882007 13.14057822 -11.20882007 13.14057822 -9 15 C-9.66 15 -10.32 15 -11 15 C-11.33 19.95 -11.66 24.9 -12 30 C-11.01 30.33 -10.02 30.66 -9 31 C-9.99 31 -10.98 31 -12 31 C-12 31.66 -12 32.32 -12 33 C-9.36 33 -6.72 33 -4 33 C-4 31.02 -4 29.04 -4 27 C-3.67 27 -3.34 27 -3 27 C-3 28.98 -3 30.96 -3 33 C-2.34 33 -1.68 33 -1 33 C-1 30.69 -1 28.38 -1 26 C0.32 26 1.64 26 3 26 C3 28.31 3 30.62 3 33 C3.66 33 4.32 33 5 33 C4.95875 31.906875 4.9175 30.81375 4.875 29.6875 C5 26 5 26 7 23 C6.34 23 5.68 23 5 23 C5 21 5 21 7 18.875 C7.66 18.25625 8.32 17.6375 9 17 C5.88037958 13.5378651 5.88037958 13.5378651 2 11.0625 C-0.69341564 10.97833076 -2.58871946 11.86133974 -5 13 C-5 12.01 -5 11.02 -5 10 C-5.66 9.67 -6.32 9.34 -7 9 C-3.25 6 -3.25 6 -1 6 C-1.020625 5.195625 -1.04125 4.39125 -1.0625 3.5625 C-1 1 -1 1 0 0 Z " fill="#0F0F0F" transform="translate(24,8)"/>
<path d="M0 0 C16.5 0 33 0 50 0 C50 2.64 50 5.28 50 8 C33.5 8 17 8 0 8 C0 5.36 0 2.72 0 0 Z " fill="#FAFAFA" transform="translate(0,42)"/>
<path d="M0 0 C0.99 1.485 0.99 1.485 2 3 C3.65 2.67 5.3 2.34 7 2 C7.33 2.66 7.66 3.32 8 4 C8.86625 3.5875 9.7325 3.175 10.625 2.75 C14 2 14 2 17.25 3.6875 C20 6 20 6 22 9 C22.14221065 11.60245498 22.18802932 14.09117684 22.125 16.6875 C22.11597656 17.38939453 22.10695313 18.09128906 22.09765625 18.81445312 C22.07413704 20.54311525 22.03826713 22.27160145 22 24 C21.67 24 21.34 24 21 24 C20.67 20.04 20.34 16.08 20 12 C19.01 12.33 18.02 12.66 17 13 C17 13.66 17 14.32 17 15 C17.66 15 18.32 15 19 15 C18.34 18.3 17.68 21.6 17 25 C16.34 25 15.68 25 15 25 C14.67 22.69 14.34 20.38 14 18 C13.34 18 12.68 18 12 18 C11.67 20.31 11.34 22.62 11 25 C7.37 25 3.74 25 0 25 C-0.02705308 22.58325776 -0.04686438 20.1668206 -0.0625 17.75 C-0.07087891 17.06808594 -0.07925781 16.38617188 -0.08789062 15.68359375 C-0.10428392 12.30657446 -0.05628768 9.22708361 1 6 C0.67 6 0.34 6 0 6 C0 4.02 0 2.04 0 0 Z " fill="#1F1F1F" transform="translate(12,16)"/>
<path d="M0 0 C0.99 0.33 1.98 0.66 3 1 C3 2.65 3 4.3 3 6 C3.7425 6.268125 4.485 6.53625 5.25 6.8125 C7.86636554 7.94229421 9.80187111 9.20893202 12 11 C12.66 10.01 13.32 9.02 14 8 C14.04254356 9.99954746 14.04080783 12.00041636 14 14 C13.67 14.33 13.34 14.66 13 15 C13.33 15.99 13.66 16.98 14 18 C14.07029121 20.57265818 14.09370832 23.11641431 14.0625 25.6875 C14.05798828 26.38939453 14.05347656 27.09128906 14.04882812 27.81445312 C14.03706927 29.54300538 14.01913454 31.27151365 14 33 C12.35 33 10.7 33 9 33 C9.05800781 31.90300781 9.11601563 30.80601563 9.17578125 29.67578125 C9.22269688 28.22139686 9.26819511 26.76696626 9.3125 25.3125 C9.35439453 24.59126953 9.39628906 23.87003906 9.43945312 23.12695312 C9.53590196 18.90249409 9.37242836 17.46052316 6.60546875 14.0390625 C3.60962383 11.61574766 3.60962383 11.61574766 0 11 C-2.70465742 11.86454438 -2.70465742 11.86454438 -5 13 C-5 12.01 -5 11.02 -5 10 C-5.66 9.67 -6.32 9.34 -7 9 C-3.25 6 -3.25 6 -1 6 C-1.020625 5.195625 -1.04125 4.39125 -1.0625 3.5625 C-1 1 -1 1 0 0 Z " fill="#666666" transform="translate(24,8)"/>
<path d="M0 0 C0.99 1.485 0.99 1.485 2 3 C3.65 2.67 5.3 2.34 7 2 C7.33 2.66 7.66 3.32 8 4 C8.86625 3.5875 9.7325 3.175 10.625 2.75 C14 2 14 2 17.25 3.6875 C20 6 20 6 22 9 C22.14221065 11.60245498 22.18802932 14.09117684 22.125 16.6875 C22.11597656 17.38939453 22.10695313 18.09128906 22.09765625 18.81445312 C22.07413704 20.54311525 22.03826713 22.27160145 22 24 C21.67 24 21.34 24 21 24 C20.98582031 23.04738281 20.97164062 22.09476563 20.95703125 21.11328125 C21.05182931 13.29041282 21.05182931 13.29041282 17.75 6.5625 C15.15555164 4.80180754 15.15555164 4.80180754 12.4375 4.9375 C9.42427052 6.250959 8.03734471 7.39976005 6 10 C5.5509984 12.70552245 5.30630366 15.04230591 5.25 17.75 C5.22035156 18.44738281 5.19070312 19.14476563 5.16015625 19.86328125 C5.08981542 21.57490813 5.04260054 23.28745815 5 25 C3.35 25 1.7 25 0 25 C-0.02705308 22.58325776 -0.04686438 20.1668206 -0.0625 17.75 C-0.07087891 17.06808594 -0.07925781 16.38617188 -0.08789062 15.68359375 C-0.10428392 12.30657446 -0.05628768 9.22708361 1 6 C0.67 6 0.34 6 0 6 C0 4.02 0 2.04 0 0 Z " fill="#C0C0C0" transform="translate(12,16)"/>
<path d="M0 0 C3.96 0 7.92 0 12 0 C12 0.66 12 1.32 12 2 C11.34 2 10.68 2 10 2 C10 2.66 10 3.32 10 4 C10.66 4 11.32 4 12 4 C11.34 7.3 10.68 10.6 10 14 C9.34 14 8.68 14 8 14 C7.67 11.69 7.34 9.38 7 7 C6.34 7 5.68 7 5 7 C4.67 9.31 4.34 11.62 4 14 C3.34 14 2.68 14 2 14 C1.80426392 12.56359829 1.61872184 11.12580496 1.4375 9.6875 C1.33308594 8.88699219 1.22867187 8.08648437 1.12109375 7.26171875 C1 5 1 5 2 2 C1.34 2 0.68 2 0 2 C0 1.34 0 0.68 0 0 Z " fill="#D6D6D6" transform="translate(19,27)"/>
<path d="M0 0 C0.66 0 1.32 0 2 0 C2.33 1.65 2.66 3.3 3 5 C3.66 5 4.32 5 5 5 C5 9.29 5 13.58 5 18 C3.35 18 1.7 18 0 18 C0 12.06 0 6.12 0 0 Z " fill="#777777" transform="translate(33,23)"/>
<path d="M0 0 C2.97 0 5.94 0 9 0 C9 1.32 9 2.64 9 4 C8.01 4.33 7.02 4.66 6 5 C6.99 5.33 7.98 5.66 9 6 C8 7 8 7 5.0625 7.125 C2 7 2 7 0 6 C0 4.02 0 2.04 0 0 Z " fill="#3B3B3B" transform="translate(38,34)"/>
<path d="M0 0 C1.32 0.99 2.64 1.98 4 3 C4.171875 5.91796875 4.171875 5.91796875 3.75 9.1875 C3.62109375 10.27417969 3.4921875 11.36085938 3.359375 12.48046875 C3.24078125 13.31191406 3.1221875 14.14335938 3 15 C2.01 15 1.02 15 0 15 C0 10.05 0 5.1 0 0 Z " fill="#4A4A4A" transform="translate(17,26)"/>
<path d="M0 0 C0 0.66 0 1.32 0 2 C-0.66 2 -1.32 2 -2 2 C-2 2.66 -2 3.32 -2 4 C-1.34 4 -0.68 4 0 4 C-0.66 7.3 -1.32 10.6 -2 14 C-2.66 14 -3.32 14 -4 14 C-4.144375 12.88625 -4.28875 11.7725 -4.4375 10.625 C-4.78372035 7.17857953 -4.78372035 7.17857953 -6 5 C-5.75 2.9375 -5.75 2.9375 -5 1 C-2 0 -2 0 0 0 Z " fill="#E6E6E6" transform="translate(31,27)"/>
<path d="M0 0 C0 4.95 0 9.9 0 15 C-0.99 15 -1.98 15 -3 15 C-4.25 8.375 -4.25 8.375 -2 5 C-2.66 5 -3.32 5 -4 5 C-4 3 -4 3 -2.5625 1.375 C-1 0 -1 0 0 0 Z " fill="#3E3E3E" transform="translate(33,26)"/>
<path d="M0 0 C0.99 0.33 1.98 0.66 3 1 C3 2.65 3 4.3 3 6 C3.99 6.33 4.98 6.66 6 7 C4 8 4 8 1.1875 7.9375 C-2.06139549 8.00120383 -4.08781089 8.62955807 -7 10 C-5.71034824 8.62437146 -4.37310707 7.29233607 -3 6 C-2.34 6 -1.68 6 -1 6 C-1.020625 5.195625 -1.04125 4.39125 -1.0625 3.5625 C-1 1 -1 1 0 0 Z " fill="#1F1F1F" transform="translate(24,8)"/>
<path d="M0 0 C2.4375 0.6875 2.4375 0.6875 4.4375 1.6875 C4.4375 2.3475 4.4375 3.0075 4.4375 3.6875 C1.1375 3.6875 -2.1625 3.6875 -5.5625 3.6875 C-5.5625 3.0275 -5.5625 2.3675 -5.5625 1.6875 C-2.5625 -0.3125 -2.5625 -0.3125 0 0 Z " fill="#D2D2D2" transform="translate(25.5625,22.3125)"/>
<path d="M0 0 C0.99 0.33 1.98 0.66 3 1 C2.125 7.875 2.125 7.875 1 9 C-0.66617115 9.04063832 -2.33388095 9.042721 -4 9 C-3.01 8.67 -2.02 8.34 -1 8 C-1.020625 6.865625 -1.04125 5.73125 -1.0625 4.5625 C-1 1 -1 1 0 0 Z " fill="#4F4F4F" transform="translate(24,33)"/>
<path d="M0 0 C0.99 1.485 0.99 1.485 2 3 C3.65 2.67 5.3 2.34 7 2 C6.67 3.65 6.34 5.3 6 7 C3.03 6.505 3.03 6.505 0 6 C0 4.02 0 2.04 0 0 Z " fill="#8C8C8C" transform="translate(12,16)"/>
<path d="M0 0 C0.33 0 0.66 0 1 0 C1.33 2.97 1.66 5.94 2 9 C0.35 9 -1.3 9 -3 9 C-3 7.02 -3 5.04 -3 3 C-2.34 3 -1.68 3 -1 3 C-0.67 2.01 -0.34 1.02 0 0 Z " fill="#727272" transform="translate(15,32)"/>
<path d="M0 0 C1.65 0 3.3 0 5 0 C5 0.66 5 1.32 5 2 C5.99 2 6.98 2 8 2 C8 2.66 8 3.32 8 4 C5.36 4 2.72 4 0 4 C0 2.68 0 1.36 0 0 Z " fill="#4F4F4F" transform="translate(3,29)"/>
<path d="M0 0 C1.65 0 3.3 0 5 0 C5 1.32 5 2.64 5 4 C2.36 4 -0.28 4 -3 4 C-3 3.34 -3 2.68 -3 2 C-2.01 2 -1.02 2 0 2 C0 1.34 0 0.68 0 0 Z " fill="#4F4F4F" transform="translate(42,29)"/>
<path d="M0 0 C0.66 0 1.32 0 2 0 C2.185625 1.2065625 2.185625 1.2065625 2.375 2.4375 C2.58125 3.283125 2.7875 4.12875 3 5 C3.66 5.33 4.32 5.66 5 6 C4.34 6 3.68 6 3 6 C3 7.65 3 9.3 3 11 C2.34 11 1.68 11 1 11 C0.67 7.37 0.34 3.74 0 0 Z " fill="#4C4C4C" transform="translate(33,23)"/>
<path d="M0 0 C0.66 0.33 1.32 0.66 2 1 C1.67 1.99 1.34 2.98 1 4 C0.67 3.67 0.34 3.34 0 3 C-1.99952758 2.95653201 -4.00039988 2.960008 -6 3 C-6.99 3 -7.98 3 -9 3 C-6.39198065 -0.47735913 -4.17603192 -0.35540697 0 0 Z " fill="#B0B0B0" transform="translate(28,15)"/>
</svg>
