<?xml version="1.0" encoding="UTF-8"?>
<svg version="1.1" xmlns="http://www.w3.org/2000/svg" width="50" height="50">
<path d="M0 0 C16.5 0 33 0 50 0 C50 16.5 50 33 50 50 C33.5 50 17 50 0 50 C0 33.5 0 17 0 0 Z " fill="#595959" transform="translate(0,0)"/>
<path d="M0 0 C16.5 0 33 0 50 0 C50 11.22 50 22.44 50 34 C48.89380928 31.78761856 47.80740803 29.56366869 46.80859375 27.30078125 C43.00243904 19.00531585 37.84347995 10.59376476 29 7 C26.67504723 6.61250787 24.34148732 6.27017161 22 6 C22 6.99 22 7.98 22 9 C17.35796103 11.53309233 13.34844008 13.46515599 8 14 C7.938125 14.78375 7.87625 15.5675 7.8125 16.375 C6.69440611 21.36341891 4.38021104 25.50651748 2 30 C1.34 31.32 0.68 32.64 0 34 C0 22.78 0 11.56 0 0 Z " fill="#FCFCFC" transform="translate(0,0)"/>
<path d="M0 0 C7.26242905 4.26987035 11.49776152 10.78077971 14.01953125 18.74609375 C14.57636379 21.58593972 14.81914526 24.05246254 14.64453125 26.93359375 C10.51214521 26.41883286 8.67394855 25.37300403 5.76953125 22.43359375 C1.2517562 18.20434887 -3.59423495 15.19510942 -8.95068359 12.16796875 C-13.14676208 9.77210408 -16.80157578 7.22544853 -20.35546875 3.93359375 C-20.35546875 3.27359375 -20.35546875 2.61359375 -20.35546875 1.93359375 C-13.18440563 -2.01642447 -7.66606963 -3.47070814 0 0 Z " fill="#FAFAFA" transform="translate(33.35546875,12.06640625)"/>
<path d="M0 0 C1.01707031 0.67095703 1.01707031 0.67095703 2.0546875 1.35546875 C8.19405861 5.34350898 14.37626074 8.88210104 21 12 C20.67 12.99 20.34 13.98 20 15 C20.70125 14.7525 21.4025 14.505 22.125 14.25 C26.14531402 13.90040748 27.88338362 15.60817813 31 18 C30.67 18.66 30.34 19.32 30 20 C29.34 20 28.68 20 28 20 C28 19.34 28 18.68 28 18 C27.34 18 26.68 18 26 18 C25.67 18.66 25.34 19.32 25 20 C22.69 20 20.38 20 18 20 C18 18.35 18 16.7 18 15 C16.68 15 15.36 15 14 15 C14 16.65 14 18.3 14 20 C12.68 20 11.36 20 10 20 C10 19.01 10 18.02 10 17 C9.34 17 8.68 17 8 17 C8 17.99 8 18.98 8 20 C7.34 20 6.68 20 6 20 C6 18.35 6 16.7 6 15 C5.34 15 4.68 15 4 15 C4.33 16.32 4.66 17.64 5 19 C4.34 19.33 3.68 19.66 3 20 C3 18.68 3 17.36 3 16 C2.34 16 1.68 16 1 16 C1 17.32 1 18.64 1 20 C0.34 20 -0.32 20 -1 20 C-1.33 18.35 -1.66 16.7 -2 15 C-2.33 16.65 -2.66 18.3 -3 20 C-4.32 20 -5.64 20 -7 20 C-7 18.35 -7 16.7 -7 15 C-6.01 15.33 -5.02 15.66 -4 16 C-4 15.34 -4 14.68 -4 14 C-4.66 14 -5.32 14 -6 14 C-5.57202798 8.29370646 -3.15654048 4.58921384 0 0 Z " fill="#DEDEDE" transform="translate(9,19)"/>
<path d="M0 0 C16.5 0 33 0 50 0 C50 1.98 50 3.96 50 6 C33.5 6 17 6 0 6 C0 4.02 0 2.04 0 0 Z " fill="#FFFFFF" transform="translate(0,44)"/>
<path d="M0 0 C5.80283344 -0.46422668 8.49762431 0.32459128 13 4 C21.92514567 12.15867324 21.92514567 12.15867324 24 17 C23.505 18.485 23.505 18.485 23 20 C22.57589844 19.32453125 22.15179688 18.6490625 21.71484375 17.953125 C17.52617112 11.58266026 14.4856158 7.43190706 6.875 5.4453125 C0.9953891 4.44496203 -3.56638606 5.72636013 -9 8 C-6.16569547 4.7457985 -4.31392226 3.4793247 0 3 C0 2.01 0 1.02 0 0 Z " fill="#3F3F3F" transform="translate(22,6)"/>
<path d="M0 0 C1.45212891 1.31484375 1.45212891 1.31484375 2.93359375 2.65625 C7.6967022 6.73994147 12.99670685 9.73430668 18.41601562 12.85546875 C23.33451718 15.76242394 27.12898979 18.7883409 31 23 C30.67 23.99 30.34 24.98 30 26 C29.608125 25.566875 29.21625 25.13375 28.8125 24.6875 C25.82266933 21.90386455 23.33015383 20.08867692 19.1875 19.8125 C18.465625 19.874375 17.74375 19.93625 17 20 C16.34 18.35 15.68 16.7 15 15 C15.99 15 16.98 15 18 15 C17.03578125 14.46890625 16.0715625 13.9378125 15.078125 13.390625 C13.80188759 12.6774335 12.52585676 11.96387224 11.25 11.25 C10.61578125 10.90195312 9.9815625 10.55390625 9.328125 10.1953125 C5.73963545 8.17678713 2.62123357 6.25668413 0 3 C0 2.01 0 1.02 0 0 Z " fill="#393939" transform="translate(12,14)"/>
<path d="M0 0 C0.99 0.33 1.98 0.66 3 1 C3.12375 1.598125 3.2475 2.19625 3.375 2.8125 C4.80003973 7.80013906 11.07212018 10.32692582 15.3125 12.75 C16.91544922 13.67039062 16.91544922 13.67039062 18.55078125 14.609375 C19.76314453 15.29773438 19.76314453 15.29773438 21 16 C18.2123586 17.12437088 17.10823274 17.03923246 14.23046875 15.99609375 C8.15639962 12.88498517 2.74283952 9.95842314 -2 5 C-2 3.68 -2 2.36 -2 1 C-1.34 0.67 -0.68 0.34 0 0 Z " fill="#686868" transform="translate(10,13)"/>
<path d="M0 0 C3.37503669 1.1858237 5.64722731 2.27573689 8 5 C7.01 5.33 6.02 5.66 5 6 C5 5.34 5 4.68 5 4 C4.34 4 3.68 4 3 4 C2.67 4.66 2.34 5.32 2 6 C0.68 6 -0.64 6 -2 6 C-1.125 1.125 -1.125 1.125 0 0 Z " fill="#EAEAEA" transform="translate(32,33)"/>
<path d="M0 0 C0.99 0.33 1.98 0.66 3 1 C3.66 0.67 4.32 0.34 5 0 C5 1.32 5 2.64 5 4 C5.66 4 6.32 4 7 4 C7 4.66 7 5.32 7 6 C6.34 6 5.68 6 5 6 C4.67 6.66 4.34 7.32 4 8 C4 7.01 4 6.02 4 5 C3.34 5 2.68 5 2 5 C2 5.99 2 6.98 2 8 C1.34 8 0.68 8 0 8 C-1.125 2.25 -1.125 2.25 0 0 Z " fill="#FCFCFC" transform="translate(15,31)"/>
<path d="M0 0 C4.97209562 1.76429199 9.43438061 4.3939166 14 7 C10.50961948 8.23800682 8.66123239 7.80144052 5.3125 6.3125 C4.52488281 5.97863281 3.73726562 5.64476562 2.92578125 5.30078125 C1 4 1 4 0.23046875 1.85546875 C0.15441406 1.24316406 0.07835938 0.63085938 0 0 Z " fill="#737373" transform="translate(17,22)"/>
<path d="M0 0 C4.43458973 1.3937282 6.87378374 3.60582235 10 7 C9.67 7.99 9.34 8.98 9 10 C8.62875 9.5875 8.2575 9.175 7.875 8.75 C5.90359625 6.79926637 5.90359625 6.79926637 2.8125 5 C1.884375 4.34 0.95625 3.68 0 3 C0 2.01 0 1.02 0 0 Z " fill="#232323" transform="translate(33,30)"/>
<path d="M0 0 C2.875 0.3125 2.875 0.3125 6 1 C6.66 1.99 7.32 2.98 8 4 C6.68 4.33 5.36 4.66 4 5 C3.67 4.01 3.34 3.02 3 2 C2.01 1.34 1.02 0.68 0 0 Z " fill="#272727" transform="translate(27,7)"/>
</svg>
