<?xml version="1.0" encoding="UTF-8"?>
<svg version="1.1" xmlns="http://www.w3.org/2000/svg" width="50" height="50">
<path d="M0 0 C16.5 0 33 0 50 0 C50 16.5 50 33 50 50 C33.5 50 17 50 0 50 C0 33.5 0 17 0 0 Z " fill="#131313" transform="translate(0,0)"/>
<path d="M0 0 C16.5 0 33 0 50 0 C50 12.54 50 25.08 50 38 C48.35 38 46.7 38 45 38 C44.40801257 32.65097076 43.85812759 27.39115154 44 22 C44.99 22 45.98 22 47 22 C47 21.34 47 20.68 47 20 C46.01 20 45.02 20 44 20 C43.505 18.515 43.505 18.515 43 17 C39.7 16.67 36.4 16.34 33 16 C33.33 14.68 33.66 13.36 34 12 C28.06 12 22.12 12 16 12 C16.33 13.32 16.66 14.64 17 16 C12.05 16.495 12.05 16.495 7 17 C6.67 17.99 6.34 18.98 6 20 C5.01 20 4.02 20 3 20 C3 20.66 3 21.32 3 22 C3.99 22 4.98 22 6 22 C6 23.32 6 24.64 6 26 C5.01 26 4.02 26 3 26 C3 26.66 3 27.32 3 28 C3.99 28 4.98 28 6 28 C5.67 30.97 5.34 33.94 5 37 C3.35 37 1.7 37 0 37 C0 24.79 0 12.58 0 0 Z " fill="#FBFBFB" transform="translate(0,0)"/>
<path d="M0 0 C16.5 0 33 0 50 0 C50 3.63 50 7.26 50 11 C33.5 11 17 11 0 11 C0 7.37 0 3.74 0 0 Z " fill="#FDFDFD" transform="translate(0,39)"/>
<path d="M0 0 C3.3 0 6.6 0 10 0 C10.33 4.29 10.66 8.58 11 13 C12.753125 12.95875 14.50625 12.9175 16.3125 12.875 C21.625 12.75 21.625 12.75 25 15 C24.67 15.99 24.34 16.98 24 18 C11.46 18 -1.08 18 -14 18 C-14 17.34 -14 16.68 -14 16 C-8.39 16 -2.78 16 3 16 C3 12.37 3 8.74 3 5 C4.32 4.67 5.64 4.34 7 4 C5.68 4 4.36 4 3 4 C2.67 7.3 2.34 10.6 2 14 C1.34 14 0.68 14 0 14 C0 9.38 0 4.76 0 0 Z " fill="#A4A4A4" transform="translate(20,20)"/>
<path d="M0 0 C0.33 0.66 0.66 1.32 1 2 C4.3 2 7.6 2 11 2 C11.33 1.34 11.66 0.68 12 0 C13.30062431 3.81516464 12.89369853 7.27561763 12.5625 11.25 C12.46066406 12.51328125 12.35882812 13.7765625 12.25390625 15.078125 C12.17011719 16.04234375 12.08632813 17.0065625 12 18 C11.67 18 11.34 18 11 18 C11 13.05 11 8.1 11 3 C7.7 3 4.4 3 1 3 C1 7.62 1 12.24 1 17 C1.66 17 2.32 17 3 17 C3 13.7 3 10.4 3 7 C4.32 6.34 5.64 5.68 7 5 C9 7 9 7 9.1953125 9.6015625 C9.17210938 10.59929688 9.14890625 11.59703125 9.125 12.625 C9.10695313 13.62789062 9.08890625 14.63078125 9.0703125 15.6640625 C9.04710938 16.43492188 9.02390625 17.20578125 9 18 C8.67 18 8.34 18 8 18 C7.505 13.05 7.505 13.05 7 8 C6.34 8 5.68 8 5 8 C4.67 11.63 4.34 15.26 4 19 C-1.61 19 -7.22 19 -13 19 C-13 19.66 -13 20.32 -13 21 C-0.46 21 12.08 21 25 21 C25 20.34 25 19.68 25 19 C24.34 18.67 23.68 18.34 23 18 C23.99 18 24.98 18 26 18 C26 18.99 26 19.98 26 21 C27.65 21 29.3 21 31 21 C31 21.33 31 21.66 31 22 C14.5 22 -2 22 -19 22 C-19 21.34 -19 20.68 -19 20 C-17.35 20 -15.7 20 -14 20 C-13.505 15.545 -13.505 15.545 -13 11 C-13.99 11 -14.98 11 -16 11 C-16 10.34 -16 9.68 -16 9 C-15.01 9 -14.02 9 -13 9 C-13 7.68 -13 6.36 -13 5 C-12.34 5 -11.68 5 -11 5 C-11 7.97 -11 10.94 -11 14 C-7.37 14 -3.74 14 0 14 C0 9.38 0 4.76 0 0 Z " fill="#232323" transform="translate(19,17)"/>
<path d="M0 0 C3.63 0 7.26 0 11 0 C11 3.3 11 6.6 11 10 C7.37 10 3.74 10 0 10 C0 6.7 0 3.4 0 0 Z " fill="#EAEAEA" transform="translate(31,21)"/>
<path d="M0 0 C7.71484375 -0.09765625 7.71484375 -0.09765625 10 0 C11 1 11 1 11.09765625 3.06640625 C11.06510417 5.37760417 11.03255208 7.68880208 11 10 C7.37 10 3.74 10 0 10 C0 6.7 0 3.4 0 0 Z " fill="#ABABAB" transform="translate(8,21)"/>
<path d="M0 0 C0 0.99 0 1.98 0 3 C0.99 3 1.98 3 3 3 C3 3.66 3 4.32 3 5 C2.01 5 1.02 5 0 5 C0 6.65 0 8.3 0 10 C0.99 10.33 1.98 10.66 3 11 C2.01 11 1.02 11 0 11 C0 12.98 0 14.96 0 17 C-4.29 16.67 -8.58 16.34 -13 16 C-13 15.34 -13 14.68 -13 14 C-9.37 14 -5.74 14 -2 14 C-2 10.7 -2 7.4 -2 4 C-5.3 4 -8.6 4 -12 4 C-12 2.68 -12 1.36 -12 0 C-10.37585622 -0.19477739 -8.75063577 -0.38059458 -7.125 -0.5625 C-6.22007813 -0.66691406 -5.31515625 -0.77132813 -4.3828125 -0.87890625 C-2 -1 -2 -1 0 0 Z " fill="#323232" transform="translate(44,17)"/>
<path d="M0 0 C3.3 0 6.6 0 10 0 C10 4.62 10 9.24 10 14 C9.34 14 8.68 14 8 14 C7.67 10.7 7.34 7.4 7 4 C5.68 4 4.36 4 3 4 C2.67 7.3 2.34 10.6 2 14 C1.34 14 0.68 14 0 14 C0 9.38 0 4.76 0 0 Z " fill="#C0C0C0" transform="translate(20,20)"/>
<path d="M0 0 C1.6254308 0.14095064 3.25034051 0.28792087 4.875 0.4375 C5.77992187 0.51871094 6.68484375 0.59992187 7.6171875 0.68359375 C10 1 10 1 12 2 C11.67 3.32 11.34 4.64 11 6 C6.05 6 1.1 6 -4 6 C-4 5.34 -4 4.68 -4 4 C-3.01 4 -2.02 4 -1 4 C-0.67 2.68 -0.34 1.36 0 0 Z " fill="#212121" transform="translate(7,16)"/>
<path d="M0 0 C3.96 0 7.92 0 12 0 C11.67 1.65 11.34 3.3 11 5 C7.7 5 4.4 5 1 5 C0.67 3.35 0.34 1.7 0 0 Z " fill="#B9B9B9" transform="translate(19,14)"/>
<path d="M0 0 C0.99 0.33 1.98 0.66 3 1 C2.34 1 1.68 1 1 1 C1 2.32 1 3.64 1 5 C1.99 4.67 2.98 4.34 4 4 C4.66 4.33 5.32 4.66 6 5 C6.33 4.34 6.66 3.68 7 3 C7 3.66 7 4.32 7 5 C7.99 5 8.98 5 10 5 C10 6.32 10 7.64 10 9 C6.7 9 3.4 9 0 9 C0 6.03 0 3.06 0 0 Z " fill="#FEFEFE" transform="translate(8,22)"/>
<path d="M0 0 C3.63 0 7.26 0 11 0 C9.68 0.33 8.36 0.66 7 1 C7 2.65 7 4.3 7 6 C5.02 6 3.04 6 1 6 C0.67 7.32 0.34 8.64 0 10 C0 6.7 0 3.4 0 0 Z " fill="#ABABAB" transform="translate(31,21)"/>
<path d="M0 0 C7.75 -0.125 7.75 -0.125 10 1 C10 1.66 10 2.32 10 3 C6.37 3 2.74 3 -1 3 C-0.67 2.01 -0.34 1.02 0 0 Z " fill="#CCCCCC" transform="translate(32,17)"/>
<path d="M0 0 C7.75 -0.125 7.75 -0.125 10 1 C10 1.66 10 2.32 10 3 C6.37 3 2.74 3 -1 3 C-0.67 2.01 -0.34 1.02 0 0 Z " fill="#CDCDCD" transform="translate(9,17)"/>
<path d="M0 0 C0.66 0.33 1.32 0.66 2 1 C2 1.99 2 2.98 2 4 C2.99 4 3.98 4 5 4 C5 4.66 5 5.32 5 6 C0.05 5.67 -4.9 5.34 -10 5 C-10 4.67 -10 4.34 -10 4 C-6.7 4 -3.4 4 0 4 C0 3.34 0 2.68 0 2 C-0.66 1.67 -1.32 1.34 -2 1 C-1.34 0.67 -0.68 0.34 0 0 Z " fill="#252525" transform="translate(42,16)"/>
</svg>
