<?xml version="1.0" encoding="UTF-8"?>
<svg version="1.1" xmlns="http://www.w3.org/2000/svg" width="50" height="50">
<path d="M0 0 C16.5 0 33 0 50 0 C50 16.5 50 33 50 50 C33.5 50 17 50 0 50 C0 33.5 0 17 0 0 Z " fill="#F9F9F9" transform="translate(0,0)"/>
<path d="M0 0 C0.66 0 1.32 0 2 0 C2 1.65 2 3.3 2 5 C2.61875 5.268125 3.2375 5.53625 3.875 5.8125 C6 7 6 7 8 10 C8.125 12.6875 8.125 12.6875 8 15 C8.66 14.01 9.32 13.02 10 12 C10.66 12 11.32 12 12 12 C15.03901852 17.82478551 15.3540919 22.48208608 15 29 C15.99 29 16.98 29 18 29 C17.91621094 27.865625 17.83242188 26.73125 17.74609375 25.5625 C17.64282913 24.04169378 17.53998716 22.52085881 17.4375 21 C17.35338867 19.88431641 17.35338867 19.88431641 17.26757812 18.74609375 C16.50135216 6.99729567 16.50135216 6.99729567 19 2 C19.66 2 20.32 2 21 2 C24.57763044 10.58631305 24.35591028 19.96059816 23 29 C23.99 29 24.98 29 26 29 C26 31.64 26 34.28 26 37 C9.5 37 -7 37 -24 37 C-24 34.36 -24 31.72 -24 29 C-23.01 29 -22.02 29 -21 29 C-21.33 25.7 -21.66 22.4 -22 19 C-21.34 19 -20.68 19 -20 19 C-20.09539063 18.27554687 -20.19078125 17.55109375 -20.2890625 16.8046875 C-20.91485454 11.34719879 -21.36153322 7.13980761 -19 2 C-16 4 -16 4 -15.28515625 7.5625 C-14.87819162 12.0748096 -15.09754611 16.49072652 -15.4375 21 C-15.48970703 21.77472656 -15.54191406 22.54945312 -15.59570312 23.34765625 C-15.72366902 25.23224487 -15.86085596 27.11620371 -16 29 C-15.01 29 -14.02 29 -13 29 C-13.03480469 28.35933594 -13.06960938 27.71867187 -13.10546875 27.05859375 C-13.28987571 21.16635234 -12.7304458 17.23335445 -10 12 C-9.34 12 -8.68 12 -8 12 C-7.34 12.66 -6.68 13.32 -6 14 C-5.9175 13.071875 -5.835 12.14375 -5.75 11.1875 C-4.86386216 7.4214142 -4.00204609 7.15772063 -1 5 C-0.1957792 2.40144267 -0.1957792 2.40144267 0 0 Z " fill="#878787" transform="translate(24,13)"/>
<path d="M0 0 C0.66 0 1.32 0 2 0 C2 1.65 2 3.3 2 5 C2.61875 5.268125 3.2375 5.53625 3.875 5.8125 C6 7 6 7 8 10 C8.13525391 12.17651367 8.13525391 12.17651367 7.9765625 14.66796875 C7.93096191 15.47258545 7.88536133 16.27720215 7.83837891 17.10620117 C7.76796387 18.12302979 7.69754883 19.1398584 7.625 20.1875 C7.41875 23.425625 7.2125 26.66375 7 30 C-3.23 30 -13.46 30 -24 30 C-23.01 29.67 -22.02 29.34 -21 29 C-21.33 25.7 -21.66 22.4 -22 19 C-21.34 19 -20.68 19 -20 19 C-20.09539063 18.27554687 -20.19078125 17.55109375 -20.2890625 16.8046875 C-20.91485454 11.34719879 -21.36153322 7.13980761 -19 2 C-16 4 -16 4 -15.28515625 7.5625 C-14.87819162 12.0748096 -15.09754611 16.49072652 -15.4375 21 C-15.48970703 21.77472656 -15.54191406 22.54945312 -15.59570312 23.34765625 C-15.72366902 25.23224487 -15.86085596 27.11620371 -16 29 C-15.01 29 -14.02 29 -13 29 C-13.03480469 28.35933594 -13.06960938 27.71867187 -13.10546875 27.05859375 C-13.28987571 21.16635234 -12.7304458 17.23335445 -10 12 C-9.34 12 -8.68 12 -8 12 C-7.34 12.66 -6.68 13.32 -6 14 C-5.9175 13.071875 -5.835 12.14375 -5.75 11.1875 C-4.86386216 7.4214142 -4.00204609 7.15772063 -1 5 C-0.1957792 2.40144267 -0.1957792 2.40144267 0 0 Z " fill="#292929" transform="translate(24,13)"/>
<path d="M0 0 C3 2 3 2 3.71484375 5.5625 C4.12180838 10.0748096 3.90245389 14.49072652 3.5625 19 C3.51029297 19.77472656 3.45808594 20.54945312 3.40429688 21.34765625 C3.27633098 23.23224487 3.13914404 25.11620371 3 27 C3.99 27 4.98 27 6 27 C5.96519531 26.35933594 5.93039062 25.71867187 5.89453125 25.05859375 C5.71012429 19.16635234 6.2695542 15.23335445 9 10 C9.66 10 10.32 10 11 10 C13 13 13 13 12.625 15.1875 C12.315625 16.0846875 12.315625 16.0846875 12 17 C12 16.34 12 15.68 12 15 C10.68 15 9.36 15 8 15 C8.99 16.485 8.99 16.485 10 18 C11.32 18 12.64 18 14 18 C14 20.97 14 23.94 14 27 C14.99 27 15.98 27 17 27 C17 25.02 17 23.04 17 21 C18.9375 20.4375 18.9375 20.4375 21 20 C22 21 22 21 22.0625 24.0625 C22.041875 25.031875 22.02125 26.00125 22 27 C18.79217914 27.95376567 15.91812604 28.11621181 12.578125 28.09765625 C11.55332031 28.09443359 10.52851563 28.09121094 9.47265625 28.08789062 C8.40917969 28.07951172 7.34570312 28.07113281 6.25 28.0625 C5.17105469 28.05798828 4.09210937 28.05347656 2.98046875 28.04882812 C0.32025617 28.03705727 -2.33984365 28.02061399 -5 28 C-4.01 27.67 -3.02 27.34 -2 27 C-2.33 23.7 -2.66 20.4 -3 17 C-2.34 17 -1.68 17 -1 17 C-1.09539062 16.27554687 -1.19078125 15.55109375 -1.2890625 14.8046875 C-1.91485454 9.34719879 -2.36153322 5.13980761 0 0 Z " fill="#161616" transform="translate(5,15)"/>
<path d="M0 0 C16.5 0 33 0 50 0 C50 0.99 50 1.98 50 3 C33.5 3 17 3 0 3 C0 2.01 0 1.02 0 0 Z " fill="#FFFFFF" transform="translate(0,47)"/>
<path d="M0 0 C0.66 0 1.32 0 2 0 C5.03901852 5.82478551 5.3540919 10.48208608 5 17 C5.99 17.33 6.98 17.66 8 18 C4.37 18 0.74 18 -3 18 C-3.55353075 5.33029613 -3.55353075 5.33029613 0 0 Z " fill="#2C2C2C" transform="translate(34,25)"/>
<path d="M0 0 C1.9375 1.0625 1.9375 1.0625 3 3 C2.8125 6.625 2.8125 6.625 2 10 C-0.79870027 11.39935013 -2.90498792 11.25265405 -6 11 C-7.875 9.8125 -7.875 9.8125 -9 8 C-9.42822025 5.14519831 -9.40659584 3.65507108 -7.875 1.1875 C-5.12844028 -0.55198782 -3.18153026 -0.39769128 0 0 Z " fill="#A6A6A6" transform="translate(39,4)"/>
<path d="M0 0 C3.3 0 6.6 0 10 0 C10 4.29 10 8.58 10 13 C9.34 13 8.68 13 8 13 C7.67 10.69 7.34 8.38 7 6 C5.68 6 4.36 6 3 6 C2.67 8.31 2.34 10.62 2 13 C1.34 13 0.68 13 0 13 C0 8.71 0 4.42 0 0 Z " fill="#909090" transform="translate(20,29)"/>
<path d="M0 0 C2.3125 1.25 2.3125 1.25 3.3125 2.25 C3.35330783 4.24958364 3.35504356 6.25045254 3.3125 8.25 C0.0125 8.25 -3.2875 8.25 -6.6875 8.25 C-6.9375 5.4375 -6.9375 5.4375 -6.6875 2.25 C-4.35550923 -0.51384091 -3.52665203 -0.98418196 0 0 Z " fill="#F9F9F9" transform="translate(26.6875,19.75)"/>
<path d="M0 0 C0.66 0 1.32 0 2 0 C4.44064587 5.64399358 4.19289099 10.97751478 4 17 C2.68 17 1.36 17 0 17 C-1.96347097 11.45608197 -2.07997558 7.79259627 -1 2 C-0.67 1.34 -0.34 0.68 0 0 Z " fill="#777777" transform="translate(43,15)"/>
<path d="M0 0 C3 2 3 2 3.6875 4.125 C3.8421875 5.053125 3.8421875 5.053125 4 6 C3.01 6.495 3.01 6.495 2 7 C1.34 6.67 0.68 6.34 0 6 C0 9.63 0 13.26 0 17 C0.66 17.33 1.32 17.66 2 18 C1.34 18 0.68 18 0 18 C0 20.97 0 23.94 0 27 C0.66 27.33 1.32 27.66 2 28 C-0.31 28 -2.62 28 -5 28 C-4.01 27.67 -3.02 27.34 -2 27 C-2.33 23.7 -2.66 20.4 -3 17 C-2.34 17 -1.68 17 -1 17 C-1.09539062 16.27554687 -1.19078125 15.55109375 -1.2890625 14.8046875 C-1.91485454 9.34719879 -2.36153322 5.13980761 0 0 Z " fill="#1E1E1E" transform="translate(5,15)"/>
<path d="M0 0 C0.99 0.33 1.98 0.66 3 1 C4.13896163 5.34492771 3.93100471 9.38620785 3.5625 13.8125 C3.51029297 14.50537109 3.45808594 15.19824219 3.40429688 15.91210938 C3.27560181 17.60854437 3.13863816 19.30434863 3 21 C2.01 21 1.02 21 0 21 C0 14.07 0 7.14 0 0 Z " fill="#919191" transform="translate(5,21)"/>
<path d="M0 0 C0.66 0.33 1.32 0.66 2 1 C1.34 3.31 0.68 5.62 0 8 C2.97 8 5.94 8 9 8 C9 8.33 9 8.66 9 9 C6.03 9 3.06 9 0 9 C0 13.29 0 17.58 0 22 C-0.33 22 -0.66 22 -1 22 C-1 19.03 -1 16.06 -1 13 C-2.32 13 -3.64 13 -5 13 C-5.33 14.32 -5.66 15.64 -6 17 C-6.33 14.69 -6.66 12.38 -7 10 C-4.525 10.495 -4.525 10.495 -2 11 C-2.061875 9.1128125 -2.061875 9.1128125 -2.125 7.1875 C-2.2390374 3.70935927 -2.05925681 3.08888522 0 0 Z " fill="#252525" transform="translate(20,20)"/>
<path d="M0 0 C2.31 0 4.62 0 7 0 C7 2.97 7 5.94 7 9 C4.69 9 2.38 9 0 9 C0 6.03 0 3.06 0 0 Z " fill="#BABABA" transform="translate(12,33)"/>
<path d="M0 0 C2.31 0 4.62 0 7 0 C7 2.97 7 5.94 7 9 C4.69 9 2.38 9 0 9 C0 6.03 0 3.06 0 0 Z " fill="#C7C7C7" transform="translate(31,33)"/>
<path d="M0 0 C3 3 3 3 3.29296875 5.48046875 C3.25816406 6.37378906 3.22335937 7.26710938 3.1875 8.1875 C3.16042969 9.08855469 3.13335937 9.98960938 3.10546875 10.91796875 C3.07066406 11.60503906 3.03585937 12.29210938 3 13 C2.01 13 1.02 13 0 13 C0 8.71 0 4.42 0 0 Z " fill="#C6C6C6" transform="translate(8,29)"/>
<path d="M0 0 C0.33 0.66 0.66 1.32 1 2 C1.66 2.33 2.32 2.66 3 3 C2.34 3 1.68 3 1 3 C1 5.97 1 8.94 1 12 C1.66 12.33 2.32 12.66 3 13 C0.69 13 -1.62 13 -4 13 C-3.01 12.67 -2.02 12.34 -1 12 C-1.33 8.7 -1.66 5.4 -2 2 C-1.34 2 -0.68 2 0 2 C0 1.34 0 0.68 0 0 Z " fill="#3B3B3B" transform="translate(4,30)"/>
<path d="M0 0 C2.97 0 5.94 0 9 0 C9 2.97 9 5.94 9 9 C8.34 9 7.68 9 7 9 C6.67 6.69 6.34 4.38 6 2 C4.68 2 3.36 2 2 2 C1.34 2.66 0.68 3.32 0 4 C0 2.68 0 1.36 0 0 Z " fill="#D5D5D5" transform="translate(21,33)"/>
<path d="M0 0 C0.99 0.33 1.98 0.66 3 1 C3 3.97 3 6.94 3 10 C2.01 10 1.02 10 0 10 C0 6.7 0 3.4 0 0 Z " fill="#D6D6D6" transform="translate(39,32)"/>
<path d="M0 0 C0.66 0 1.32 0 2 0 C2.66 1.98 3.32 3.96 4 6 C3.34 6.66 2.68 7.32 2 8 C2 7.34 2 6.68 2 6 C1.34 6 0.68 6 0 6 C-0.33 7.32 -0.66 8.64 -1 10 C-2.15837626 5.94568308 -1.83691257 3.78187881 0 0 Z " fill="#2A2A2A" transform="translate(43,15)"/>
<path d="M0 0 C0.99 0.33 1.98 0.66 3 1 C3 2.98 3 4.96 3 7 C1.68 7 0.36 7 -1 7 C-1.04254356 5.00045254 -1.04080783 2.99958364 -1 1 C-0.67 0.67 -0.34 0.34 0 0 Z " fill="#F5F5F5" transform="translate(24,35)"/>
<path d="M0 0 C0.66 0 1.32 0 2 0 C2.84454356 3.37817425 3.10844919 5.67465243 2 9 C1.34 9 0.68 9 0 9 C0 6.03 0 3.06 0 0 Z " fill="#E0E0E0" transform="translate(12,33)"/>
<path d="M0 0 C2.97 0.495 2.97 0.495 6 1 C6 1.66 6 2.32 6 3 C4.68 3 3.36 3 2 3 C1.67 4.32 1.34 5.64 1 7 C0.67 4.69 0.34 2.38 0 0 Z " fill="#545454" transform="translate(13,30)"/>
</svg>
