<?xml version="1.0" encoding="UTF-8"?>
<svg version="1.1" xmlns="http://www.w3.org/2000/svg" width="50" height="50">
<path d="M0 0 C16.5 0 33 0 50 0 C50 16.5 50 33 50 50 C33.5 50 17 50 0 50 C0 33.5 0 17 0 0 Z " fill="#212121" transform="translate(0,0)"/>
<path d="M0 0 C16.5 0 33 0 50 0 C50 14.52 50 29.04 50 44 C49.01 44 48.02 44 47 44 C47 39.05 47 34.1 47 29 C46.34 29 45.68 29 45 29 C44.505 27.515 44.505 27.515 44 26 C41.99983534 24.79117904 41.99983534 24.79117904 40 24 C38.68 24.99 37.36 25.98 36 27 C36 23.7 36 20.4 36 17 C36.66 17 37.32 17 38 17 C38 15.02 38 13.04 38 11 C37.34 11 36.68 11 36 11 C34 8 34 8 34 4 C33.34 4 32.68 4 32 4 C30.22525472 10.47260044 29.82398124 17.31128701 30 24 C29.34 24 28.68 24 28 24 C28 23.34 28 22.68 28 22 C27.34 22 26.68 22 26 22 C26 21.34 26 20.68 26 20 C25.34 20 24.68 20 24 20 C24 20.66 24 21.32 24 22 C23.34 22 22.68 22 22 22 C22 22.66 22 23.32 22 24 C21.34 24 20.68 24 20 24 C20.02320312 23.19175781 20.04640625 22.38351563 20.0703125 21.55078125 C20.08835937 20.48214844 20.10640625 19.41351562 20.125 18.3125 C20.14820312 17.25675781 20.17140625 16.20101563 20.1953125 15.11328125 C19.99720577 11.95545995 19.24435373 9.87573086 18 7 C18 6.01 18 5.02 18 4 C17.34 4 16.68 4 16 4 C16 5.32 16 6.64 16 8 C15.34 8 14.68 8 14 8 C14 14.27 14 20.54 14 27 C13.67 26.34 13.34 25.68 13 25 C10.47266765 24.34444881 10.47266765 24.34444881 8 24 C7.54625 24.825 7.0925 25.65 6.625 26.5 C5.820625 27.7375 5.820625 27.7375 5 29 C4.34 29 3.68 29 3 29 C3 33.95 3 38.9 3 44 C2.01 44 1.02 44 0 44 C0 29.48 0 14.96 0 0 Z " fill="#F9F9F9" transform="translate(0,0)"/>
<path d="M0 0 C0.66 0 1.32 0 2 0 C3.76462683 3.08809695 4 4.23312136 4 8 C4.66 8.33 5.32 8.66 6 9 C5.34 9 4.68 9 4 9 C4 9.66 4 10.32 4 11 C4.66 11.33 5.32 11.66 6 12 C5.34 12 4.68 12 4 12 C4 12.66 4 13.32 4 14 C4.66 14.33 5.32 14.66 6 15 C5.34 15 4.68 15 4 15 C4 16.65 4 18.3 4 20 C4.66 20 5.32 20 6 20 C6 19.34 6 18.68 6 18 C6.66 18 7.32 18 8 18 C8 17.34 8 16.68 8 16 C8.66 16 9.32 16 10 16 C10 16.66 10 17.32 10 18 C10.66 18 11.32 18 12 18 C12 18.66 12 19.32 12 20 C12.66 20 13.32 20 14 20 C14 20.66 14 21.32 14 22 C10.7 22 7.4 22 4 22 C3.67 23.32 3.34 24.64 3 26 C-2.03733166 27.5111995 -6.88171027 26.64599773 -12 26 C-10.52307692 21.32307692 -10.52307692 21.32307692 -7.875 19.6875 C-7.25625 19.460625 -6.6375 19.23375 -6 19 C-5.01 19.66 -4.02 20.32 -3 21 C-3.01740234 19.66195313 -3.01740234 19.66195313 -3.03515625 18.296875 C-3.04417969 17.12640625 -3.05320312 15.9559375 -3.0625 14.75 C-3.07410156 13.58984375 -3.08570313 12.4296875 -3.09765625 11.234375 C-3.01782092 8.59022872 -2.78643778 6.50173909 -2 4 C-1.34 4 -0.68 4 0 4 C0 2.68 0 1.36 0 0 Z " fill="#040404" transform="translate(16,4)"/>
<path d="M0 0 C16.5 0 33 0 50 0 C50 1.32 50 2.64 50 4 C33.5 4 17 4 0 4 C0 2.68 0 1.36 0 0 Z " fill="#FAFAFA" transform="translate(0,46)"/>
<path d="M0 0 C3.63 0.33 7.26 0.66 11 1 C11 5.95 11 10.9 11 16 C10.34 16 9.68 16 9 16 C8.67 12.7 8.34 9.4 8 6 C7.67 6 7.34 6 7 6 C7.33 6.33 7.66 6.66 8 7 C8.14193337 10.00331018 8.04236378 12.99217134 8 16 C4.37 16.33 0.74 16.66 -3 17 C-3 16.34 -3 15.68 -3 15 C-2.01 15 -1.02 15 0 15 C0 10.05 0 5.1 0 0 Z " fill="#383838" transform="translate(3,29)"/>
<path d="M0 0 C0 4.95 0 9.9 0 15 C0.99 15.33 1.98 15.66 3 16 C-0.63 16 -4.26 16 -8 16 C-8 13.03 -8 10.06 -8 7 C-7.01 6.67 -6.02 6.34 -5 6 C-6.32 6.33 -7.64 6.66 -9 7 C-9.33 9.64 -9.66 12.28 -10 15 C-10.33 15 -10.66 15 -11 15 C-11 10.38 -11 5.76 -11 1 C-8.5559375 0.7525 -8.5559375 0.7525 -6.0625 0.5 C-4.68771484 0.36078125 -4.68771484 0.36078125 -3.28515625 0.21875 C-1 0 -1 0 0 0 Z " fill="#3F3F3F" transform="translate(47,29)"/>
<path d="M0 0 C1.32 0 2.64 0 4 0 C4 4.29 4 8.58 4 13 C-0.29 13 -4.58 13 -9 13 C-9.33 12.01 -9.66 11.02 -10 10 C-9.01 9.01 -8.02 8.02 -7 7 C-4.525 7.99 -4.525 7.99 -2 9 C-1.34 6.03 -0.68 3.06 0 0 Z " fill="#808080" transform="translate(15,16)"/>
<path d="M0 0 C3.3 0 6.6 0 10 0 C10 6.27 10 12.54 10 19 C9.34 19 8.68 19 8 19 C7.67 14.05 7.34 9.1 7 4 C5.68 4 4.36 4 3 4 C2.67 8.95 2.34 13.9 2 19 C1.34 19 0.68 19 0 19 C0 12.73 0 6.46 0 0 Z " fill="#CDCDCD" transform="translate(20,26)"/>
<path d="M0 0 C2.97 0 5.94 0 9 0 C9 4.95 9 9.9 9 15 C8.34 15 7.68 15 7 15 C6.67 11.7 6.34 8.4 6 5 C4.68 5.33 3.36 5.66 2 6 C1.67 8.64 1.34 11.28 1 14 C0.67 14 0.34 14 0 14 C0 9.38 0 4.76 0 0 Z " fill="#C3C3C3" transform="translate(5,30)"/>
<path d="M0 0 C0.66 0 1.32 0 2 0 C2.33 1.98 2.66 3.96 3 6 C4.32 5.01 5.64 4.02 7 3 C8.32 4.32 9.64 5.64 11 7 C10.67 7.66 10.34 8.32 10 9 C5.71 9 1.42 9 -3 9 C-3 7.35 -3 5.7 -3 4 C-2.01 4 -1.02 4 0 4 C0 2.68 0 1.36 0 0 Z " fill="#6E6E6E" transform="translate(34,20)"/>
<path d="M0 0 C2.97 0 5.94 0 9 0 C9 4.62 9 9.24 9 14 C8.67 14 8.34 14 8 14 C7.67 11.36 7.34 8.72 7 6 C5.05396726 5.40929986 5.05396726 5.40929986 3 5 C1.50256881 6.49743119 1.66797307 7.98824239 1.4375 10.0625 C1.293125 11.361875 1.14875 12.66125 1 14 C0.67 14 0.34 14 0 14 C0 9.38 0 4.76 0 0 Z " fill="#C9C9C9" transform="translate(36,30)"/>
<path d="M0 0 C1.32 0 2.64 0 4 0 C4 4.95 4 9.9 4 15 C2.68 14.67 1.36 14.34 0 14 C0 9.38 0 4.76 0 0 Z " fill="#B9B9B9" transform="translate(15,30)"/>
<path d="M0 0 C0.66 0 1.32 0 2 0 C3.44207941 2.88415883 3.09394887 5.41721528 3.0625 8.625 C3.05347656 9.81351563 3.04445313 11.00203125 3.03515625 12.2265625 C3.02355469 13.14179687 3.01195312 14.05703125 3 15 C1.68 15 0.36 15 -1 15 C-1.02693575 12.87506859 -1.04636628 10.75004088 -1.0625 8.625 C-1.07410156 7.44164062 -1.08570312 6.25828125 -1.09765625 5.0390625 C-1 2 -1 2 0 0 Z " fill="#C0C0C0" transform="translate(24,30)"/>
<path d="M0 0 C0.99 0 1.98 0 3 0 C3 4.95 3 9.9 3 15 C2.01 15 1.02 15 0 15 C0 10.05 0 5.1 0 0 Z " fill="#D8D8D8" transform="translate(31,30)"/>
<path d="M0 0 C0.66 0 1.32 0 2 0 C4.03684712 4.07369424 4.0257259 6.58937864 3 11 C0.5625 10.625 0.5625 10.625 -2 10 C-3.24546405 7.50907189 -2.7767578 6.58919267 -2 4 C-1.34 4 -0.68 4 0 4 C0 2.68 0 1.36 0 0 Z " fill="#636363" transform="translate(16,4)"/>
<path d="M0 0 C0.66 0 1.32 0 2 0 C2.99 2.97 3.98 5.94 5 9 C4.34 9.66 3.68 10.32 3 11 C1.68 11 0.36 11 -1 11 C-2.23076923 4.6 -2.23076923 4.6 -1.0625 1.5625 C-0.711875 1.046875 -0.36125 0.53125 0 0 Z " fill="#646464" transform="translate(32,4)"/>
<path d="M0 0 C1.98 0 3.96 0 6 0 C6 0.99 6 1.98 6 3 C5.360625 3.165 4.72125 3.33 4.0625 3.5 C1.83880759 4.781786 1.83880759 4.781786 1.51171875 6.9140625 C1.2724022 8.93575155 1.13106972 10.96841939 1 13 C0.67 13 0.34 13 0 13 C0 8.71 0 4.42 0 0 Z " fill="#EBEBEB" transform="translate(36,31)"/>
<path d="M0 0 C0.66 0 1.32 0 2 0 C2 0.66 2 1.32 2 2 C2.66 2 3.32 2 4 2 C4 2.66 4 3.32 4 4 C4.66 4 5.32 4 6 4 C6 4.66 6 5.32 6 6 C3.03 6 0.06 6 -3 6 C-2.67 4.68 -2.34 3.36 -2 2 C-1.34 2 -0.68 2 0 2 C0 1.34 0 0.68 0 0 Z " fill="#3B3B3B" transform="translate(24,20)"/>
<path d="M0 0 C1.32 0 2.64 0 4 0 C4 2.64 4 5.28 4 8 C2.68 8 1.36 8 0 8 C-1.125 2.25 -1.125 2.25 0 0 Z " fill="#989898" transform="translate(15,16)"/>
<path d="M0 0 C0.33 1.32 0.66 2.64 1 4 C2.32 4 3.64 4 5 4 C5 5.65 5 7.3 5 9 C3.35 8.67 1.7 8.34 0 8 C0 5.36 0 2.72 0 0 Z " fill="#5E5E5E" transform="translate(14,20)"/>
<path d="M0 0 C0.66 0.33 1.32 0.66 2 1 C2 3.64 2 6.28 2 9 C1.01 9 0.02 9 -1 9 C-1.09765625 2.84765625 -1.09765625 2.84765625 -1 1 C-0.67 0.67 -0.34 0.34 0 0 Z " fill="#F5F5F5" transform="translate(9,35)"/>
<path d="M0 0 C0.66 0.33 1.32 0.66 2 1 C2 3.64 2 6.28 2 9 C1.01 9 0.02 9 -1 9 C-1.09765625 2.84765625 -1.09765625 2.84765625 -1 1 C-0.67 0.67 -0.34 0.34 0 0 Z " fill="#F5F5F5" transform="translate(40,35)"/>
<path d="M0 0 C0.99 0 1.98 0 3 0 C2.7834375 0.99 2.7834375 0.99 2.5625 2 C1.87700084 5.65599551 1.43824485 9.30622195 1 13 C0.67 13 0.34 13 0 13 C0 8.71 0 4.42 0 0 Z " fill="#E3E3E3" transform="translate(5,31)"/>
</svg>
