<?xml version="1.0" encoding="UTF-8"?>
<svg version="1.1" xmlns="http://www.w3.org/2000/svg" width="50" height="50">
<path d="M0 0 C16.5 0 33 0 50 0 C50 16.5 50 33 50 50 C33.5 50 17 50 0 50 C0 33.5 0 17 0 0 Z " fill="#FCFCFC" transform="translate(0,0)"/>
<path d="M0 0 C0.33 0.66 0.66 1.32 1 2 C1.99 2.33 2.98 2.66 4 3 C4 4.65 4 6.3 4 8 C4.66 8 5.32 8 6 8 C8.67927341 12.01891012 8.15601248 14.24161923 8 19 C11.3 19 14.6 19 18 19 C18 16.36 18 13.72 18 11 C18.33 11.66 18.66 12.32 19 13 C21.02463255 13.65213292 21.02463255 13.65213292 23 14 C21.68 14 20.36 14 19 14 C19 15.65 19 17.3 19 19 C20.32 19.33 21.64 19.66 23 20 C22.34 20 21.68 20 21 20 C21 20.66 21 21.32 21 22 C22.98 22 24.96 22 27 22 C27 16.72 27 11.44 27 6 C26.01 6 25.02 6 24 6 C24 7.65 24 9.3 24 11 C23.34 11.33 22.68 11.66 22 12 C21.34 11.34 20.68 10.68 20 10 C20.99 10 21.98 10 23 10 C23 7.36 23 4.72 23 2 C23.66 2 24.32 2 25 2 C25.33 1.34 25.66 0.68 26 0 C26 0.66 26 1.32 26 2 C26.66 2 27.32 2 28 2 C29.63945963 5.27891925 29.12030178 8.90613534 29.09765625 12.5078125 C29.0962413 13.34843231 29.09482635 14.18905212 29.09336853 15.05514526 C29.08776237 17.74513275 29.07520886 20.43503759 29.0625 23.125 C29.05748579 24.94661338 29.05292275 26.76822807 29.04882812 28.58984375 C29.03779094 33.05992777 29.0205222 37.52994986 29 42 C31.97 42 34.94 42 38 42 C38 43.65 38 45.3 38 47 C21.5 47 5 47 -12 47 C-12 45.35 -12 43.7 -12 42 C-9.03 42 -6.06 42 -3 42 C-3.00523682 40.85934082 -3.01047363 39.71868164 -3.01586914 38.54345703 C-3.03393869 34.32048321 -3.04543919 30.09751282 -3.05493164 25.87451172 C-3.05996737 24.04507879 -3.06679627 22.21564991 -3.07543945 20.38623047 C-3.08753824 17.76008102 -3.09323583 15.13398468 -3.09765625 12.5078125 C-3.10281754 11.68693146 -3.10797882 10.86605042 -3.11329651 10.02029419 C-3.11387171 4.22774341 -3.11387171 4.22774341 -2 2 C-1.34 2 -0.68 2 0 2 C0 1.34 0 0.68 0 0 Z " fill="#1A1A1A" transform="translate(12,3)"/>
<path d="M0 0 C0.33 0 0.66 0 1 0 C1 1.65 1 3.3 1 5 C1.66 5 2.32 5 3 5 C5.67927341 9.01891012 5.15601248 11.24161923 5 16 C7.64 16 10.28 16 13 16 C13.33 16.99 13.66 17.98 14 19 C13.01 19 12.02 19 11 19 C14.07322544 19.91058531 16.80097361 20.08886184 20 20 C20.103125 20.639375 20.20625 21.27875 20.3125 21.9375 C20.539375 22.618125 20.76625 23.29875 21 24 C21.99 24.33 22.98 24.66 24 25 C24 29.62 24 34.24 24 39 C19 40 19 40 16 39 C15.87625 37.88625 15.7525 36.7725 15.625 35.625 C15.3534187 31.96896323 15.3534187 31.96896323 13 30 C10 29.66666667 10 29.66666667 7 30 C4.23776722 32.76223278 4.42143709 35.20706617 4 39 C1.36 39 -1.28 39 -4 39 C-4 27.12 -4 15.24 -4 3 C-2.68 3 -1.36 3 0 3 C0 2.01 0 1.02 0 0 Z " fill="#717171" transform="translate(15,6)"/>
<path d="M0 0 C0.33 0.66 0.66 1.32 1 2 C1.66 2 2.32 2 3 2 C4.63945963 5.27891925 4.12030178 8.90613534 4.09765625 12.5078125 C4.0962413 13.34843231 4.09482635 14.18905212 4.09336853 15.05514526 C4.08776237 17.74513275 4.07520886 20.43503759 4.0625 23.125 C4.05748579 24.94661338 4.05292275 26.76822807 4.04882812 28.58984375 C4.03779094 33.05992777 4.0205222 37.52994986 4 42 C3.67 42 3.34 42 3 42 C2.67 37.38 2.34 32.76 2 28 C0.68 27.67 -0.64 27.34 -2 27 C-2 25.68 -2 24.36 -2 23 C-2.66 23 -3.32 23 -4 23 C-4 24.98 -4 26.96 -4 29 C-4.33 29 -4.66 29 -5 29 C-5 27.02 -5 25.04 -5 23 C-5.66 23 -6.32 23 -7 23 C-7 24.98 -7 26.96 -7 29 C-7.33 29 -7.66 29 -8 29 C-8 27.02 -8 25.04 -8 23 C-8.66 23 -9.32 23 -10 23 C-10 24.98 -10 26.96 -10 29 C-10.33 29 -10.66 29 -11 29 C-11 26.69 -11 24.38 -11 22 C-10.01 22 -9.02 22 -8 22 C-8.33 21.01 -8.66 20.02 -9 19 C-8.34 19 -7.68 19 -7 19 C-7 16.36 -7 13.72 -7 11 C-6.67 11.66 -6.34 12.32 -6 13 C-3.97536745 13.65213292 -3.97536745 13.65213292 -2 14 C-3.32 14 -4.64 14 -6 14 C-6 15.65 -6 17.3 -6 19 C-4.68 19.33 -3.36 19.66 -2 20 C-2.66 20 -3.32 20 -4 20 C-4 20.66 -4 21.32 -4 22 C-2.02 22 -0.04 22 2 22 C2 16.72 2 11.44 2 6 C1.01 6 0.02 6 -1 6 C-1 7.65 -1 9.3 -1 11 C-1.99 11.495 -1.99 11.495 -3 12 C-3.66 11.34 -4.32 10.68 -5 10 C-4.01 10 -3.02 10 -2 10 C-2 7.36 -2 4.72 -2 2 C-1.34 2 -0.68 2 0 2 C0 1.34 0 0.68 0 0 Z " fill="#6A6A6A" transform="translate(37,3)"/>
<path d="M0 0 C16.5 0 33 0 50 0 C50 0.99 50 1.98 50 3 C33.5 3 17 3 0 3 C0 2.01 0 1.02 0 0 Z " fill="#FFFFFF" transform="translate(0,47)"/>
<path d="M0 0 C0.33 0 0.66 0 1 0 C1 1.65 1 3.3 1 5 C1.66 5 2.32 5 3 5 C5.021829 9.04365799 5.19150921 11.63113288 4 16 C3.34 16.33 2.68 16.66 2 17 C2 19.64 2 22.28 2 25 C1.34 25 0.68 25 0 25 C-0.33 24.01 -0.66 23.02 -1 22 C-1.99 22 -2.98 22 -4 22 C-4 15.73 -4 9.46 -4 3 C-2.68 3 -1.36 3 0 3 C0 2.01 0 1.02 0 0 Z " fill="#5F5F5F" transform="translate(15,6)"/>
<path d="M0 0 C5.94 0 11.88 0 18 0 C18 3.96 18 7.92 18 12 C17.01 12 16.02 12 15 12 C14.87625 10.88625 14.7525 9.7725 14.625 8.625 C14.3534187 4.96896323 14.3534187 4.96896323 12 3 C9 2.66666667 9 2.66666667 6 3 C3.23776722 5.76223278 3.42143709 8.20706617 3 12 C2.01 12 1.02 12 0 12 C0 8.04 0 4.08 0 0 Z " fill="#EAEAEA" transform="translate(16,33)"/>
<path d="M0 0 C0.33 0.66 0.66 1.32 1 2 C1.66 2 2.32 2 3 2 C3 3.32 3 4.64 3 6 C1.68 6 0.36 6 -1 6 C-1 9.96 -1 13.92 -1 18 C-0.01 18.33 0.98 18.66 2 19 C1.01 19 0.02 19 -1 19 C-1 19.99 -1 20.98 -1 22 C-0.01 22.33 0.98 22.66 2 23 C1.01 23 0.02 23 -1 23 C-1 29.6 -1 36.2 -1 43 C-1.66 43 -2.32 43 -3 43 C-3.02467609 37.48242521 -3.04284856 31.96488239 -3.05493164 26.44726562 C-3.05996763 24.56933025 -3.06679671 22.6913988 -3.07543945 20.81347656 C-3.08753713 18.11782868 -3.09323557 15.42223253 -3.09765625 12.7265625 C-3.10281754 11.88380768 -3.10797882 11.04105286 -3.11329651 10.17276001 C-3.11387171 4.22774341 -3.11387171 4.22774341 -2 2 C-1.34 2 -0.68 2 0 2 C0 1.34 0 0.68 0 0 Z " fill="#373737" transform="translate(12,3)"/>
<path d="M0 0 C0.33 0 0.66 0 1 0 C1 2.31 1 4.62 1 7 C0.01 7 -0.98 7 -2 7 C-2 6.34 -2 5.68 -2 5 C-1.34 5 -0.68 5 0 5 C0 3.35 0 1.7 0 0 Z M2 3 C2.99 3 3.98 3 5 3 C5 8.28 5 13.56 5 19 C3.02 19 1.04 19 -1 19 C-1 18.34 -1 17.68 -1 17 C-1.66 16.67 -2.32 16.34 -3 16 C-3 13.03 -3 10.06 -3 7 C-1.68 7.33 -0.36 7.66 1 8 C1.33 6.35 1.66 4.7 2 3 Z " fill="#808080" transform="translate(34,6)"/>
<path d="M0 0 C2.3125 1.25 2.3125 1.25 3.3125 2.25 C3.35330783 4.24958364 3.35504356 6.25045254 3.3125 8.25 C0.0125 8.25 -3.2875 8.25 -6.6875 8.25 C-6.9375 5.4375 -6.9375 5.4375 -6.6875 2.25 C-4.35550923 -0.51384091 -3.52665203 -0.98418196 0 0 Z " fill="#EDEDED" transform="translate(26.6875,36.75)"/>
<path d="M0 0 C1.98 0.495 1.98 0.495 4 1 C4 5.62 4 10.24 4 15 C2.35 15.33 0.7 15.66 -1 16 C-1.02685095 13.52076199 -1.04676547 11.0418116 -1.0625 8.5625 C-1.07506836 7.50192383 -1.07506836 7.50192383 -1.08789062 6.41992188 C-1.09653588 4.61306441 -1.05220011 2.80612397 -1 1 C-0.67 0.67 -0.34 0.34 0 0 Z " fill="#313131" transform="translate(35,30)"/>
<path d="M0 0 C0.33 0.66 0.66 1.32 1 2 C3.02463255 2.65213292 3.02463255 2.65213292 5 3 C3.68 3 2.36 3 1 3 C1 4.65 1 6.3 1 8 C2.32 8.33 3.64 8.66 5 9 C4.34 9 3.68 9 3 9 C3 9.66 3 10.32 3 11 C4.98 11 6.96 11 9 11 C8.01 11.33 7.02 11.66 6 12 C6 12.66 6 13.32 6 14 C6.99 14.33 7.98 14.66 9 15 C7.68 15.33 6.36 15.66 5 16 C5 14.68 5 13.36 5 12 C4.34 12 3.68 12 3 12 C3 13.98 3 15.96 3 18 C2.67 18 2.34 18 2 18 C2 16.02 2 14.04 2 12 C1.34 12 0.68 12 0 12 C0 13.98 0 15.96 0 18 C-0.33 18 -0.66 18 -1 18 C-1 16.02 -1 14.04 -1 12 C-1.66 12 -2.32 12 -3 12 C-3 13.98 -3 15.96 -3 18 C-3.33 18 -3.66 18 -4 18 C-4 15.69 -4 13.38 -4 11 C-3.01 11 -2.02 11 -1 11 C-1.33 10.01 -1.66 9.02 -2 8 C-1.34 8 -0.68 8 0 8 C0 5.36 0 2.72 0 0 Z " fill="#030303" transform="translate(30,14)"/>
<path d="M0 0 C0.33 0 0.66 0 1 0 C1 1.98 1 3.96 1 6 C2.98 6 4.96 6 7 6 C6.01 6.495 6.01 6.495 5 7 C5.33 7.99 5.66 8.98 6 10 C5.72428861 12.00875442 5.39764263 14.01178687 5 16 C4.67 16 4.34 16 4 16 C4 14.02 4 12.04 4 10 C3.34 10 2.68 10 2 10 C2 11.98 2 13.96 2 16 C1.67 16 1.34 16 1 16 C1 14.02 1 12.04 1 10 C0.34 10 -0.32 10 -1 10 C-1 11.98 -1 13.96 -1 16 C-1.33 16 -1.66 16 -2 16 C-2 14.02 -2 12.04 -2 10 C-2.66 9.67 -3.32 9.34 -4 9 C-3.34 9 -2.68 9 -2 9 C-2 8.34 -2 7.68 -2 7 C-2.66 6.67 -3.32 6.34 -4 6 C-2.68 6 -1.36 6 0 6 C0 4.02 0 2.04 0 0 Z " fill="#1C1C1C" transform="translate(19,16)"/>
<path d="M0 0 C0.33 0.66 0.66 1.32 1 2 C1.66 2 2.32 2 3 2 C3 8.6 3 15.2 3 22 C2.67 22 2.34 22 2 22 C2 16.72 2 11.44 2 6 C1.01 6 0.02 6 -1 6 C-1 7.65 -1 9.3 -1 11 C-1.99 11.495 -1.99 11.495 -3 12 C-3.66 11.34 -4.32 10.68 -5 10 C-4.01 10 -3.02 10 -2 10 C-2 7.36 -2 4.72 -2 2 C-1.34 2 -0.68 2 0 2 C0 1.34 0 0.68 0 0 Z " fill="#1F1F1F" transform="translate(37,3)"/>
<path d="M0 0 C0.99 0 1.98 0 3 0 C3 3.96 3 7.92 3 12 C2.01 12 1.02 12 0 12 C0 8.04 0 4.08 0 0 Z " fill="#FFFFFF" transform="translate(36,33)"/>
<path d="M0 0 C0.99 0 1.98 0 3 0 C3 3.96 3 7.92 3 12 C2.01 12 1.02 12 0 12 C0 8.04 0 4.08 0 0 Z " fill="#FFFFFF" transform="translate(11,33)"/>
<path d="M0 0 C2.37590142 3.70416126 2.20500286 6.92984573 2.125 11.25 C2.10695313 12.51328125 2.08890625 13.7765625 2.0703125 15.078125 C2.04710937 16.04234375 2.02390625 17.0065625 2 18 C1.67 18 1.34 18 1 18 C1 14.04 1 10.08 1 6 C-0.32 6 -1.64 6 -3 6 C-3 4.35 -3 2.7 -3 1 C-2.01 0.67 -1.02 0.34 0 0 Z " fill="#4C4C4C" transform="translate(14,27)"/>
<path d="M0 0 C0.33 0.66 0.66 1.32 1 2 C3.02463255 2.65213292 3.02463255 2.65213292 5 3 C3.68 3 2.36 3 1 3 C1.33 5.64 1.66 8.28 2 11 C1.01 11 0.02 11 -1 11 C-1.33 10.01 -1.66 9.02 -2 8 C-1.34 8 -0.68 8 0 8 C0 5.36 0 2.72 0 0 Z M-4 11 C-3.01 11.33 -2.02 11.66 -1 12 C-1.66 12 -2.32 12 -3 12 C-3 13.98 -3 15.96 -3 18 C-3.33 18 -3.66 18 -4 18 C-4 15.69 -4 13.38 -4 11 Z " fill="#111111" transform="translate(30,14)"/>
<path d="M0 0 C0.99 0 1.98 0 3 0 C3.33 1.32 3.66 2.64 4 4 C4.66 4 5.32 4 6 4 C6 5.65 6 7.3 6 9 C5.34 9 4.68 9 4 9 C3.67 8.01 3.34 7.02 3 6 C2.01 6 1.02 6 0 6 C0 4.02 0 2.04 0 0 Z " fill="#B1B1B1" transform="translate(11,22)"/>
<path d="M0 0 C0.99 0 1.98 0 3 0 C3 2.64 3 5.28 3 8 C2.01 8 1.02 8 0 8 C0 5.36 0 2.72 0 0 Z " fill="#F2F2F2" transform="translate(36,9)"/>
<path d="M0 0 C0.99 0 1.98 0 3 0 C3 2.64 3 5.28 3 8 C2.01 8 1.02 8 0 8 C0 5.36 0 2.72 0 0 Z " fill="#F2F2F2" transform="translate(11,9)"/>
<path d="M0 0 C0.99 0.33 1.98 0.66 3 1 C2.34 1 1.68 1 1 1 C1.33 1.99 1.66 2.98 2 4 C1.72428861 6.00875442 1.39764263 8.01178687 1 10 C0.67 10 0.34 10 0 10 C0 8.02 0 6.04 0 4 C-0.66 4 -1.32 4 -2 4 C-2 5.98 -2 7.96 -2 10 C-2.33 10 -2.66 10 -3 10 C-3 7.69 -3 5.38 -3 3 C-2.01 3 -1.02 3 0 3 C0 2.01 0 1.02 0 0 Z " fill="#000000" transform="translate(23,22)"/>
</svg>
