<?xml version="1.0" encoding="UTF-8"?>
<svg version="1.1" xmlns="http://www.w3.org/2000/svg" width="50" height="50">
<path d="M0 0 C16.5 0 33 0 50 0 C50 16.5 50 33 50 50 C33.5 50 17 50 0 50 C0 33.5 0 17 0 0 Z " fill="#040404" transform="translate(0,0)"/>
<path d="M0 0 C7.26 0 14.52 0 22 0 C22 16.5 22 33 22 50 C19.36 49.67 16.72 49.34 14 49 C14 44.38 14 39.76 14 35 C11.36 34.67 8.72 34.34 6 34 C6 27.07 6 20.14 6 13 C5.34 13 4.68 13 4 13 C4 12.01 4 11.02 4 10 C3.34 10 2.68 10 2 10 C1.67 8.68 1.34 7.36 1 6 C0.01 6 -0.98 6 -2 6 C-2 5.01 -2 4.02 -2 3 C-1.34 3 -0.68 3 0 3 C0 2.01 0 1.02 0 0 Z " fill="#282828" transform="translate(28,0)"/>
<path d="M0 0 C1.32 0 2.64 0 4 0 C4 0.99 4 1.98 4 3 C3.34 3 2.68 3 2 3 C2 3.99 2 4.98 2 6 C2.99 6 3.98 6 5 6 C5.33 7.32 5.66 8.64 6 10 C6.66 10 7.32 10 8 10 C8 10.99 8 11.98 8 13 C8.66 13 9.32 13 10 13 C10 19.93 10 26.86 10 34 C14.29 34 18.58 34 23 34 C23 34.33 23 34.66 23 35 C21.35 35 19.7 35 18 35 C18 39.62 18 44.24 18 49 C19.65 49 21.3 49 23 49 C23 49.33 23 49.66 23 50 C8.48 50 -6.04 50 -21 50 C-21 49.67 -21 49.34 -21 49 C-16.71 49 -12.42 49 -8 49 C-8 44.05 -8 39.1 -8 34 C-2.39 34 3.22 34 9 34 C9 27.4 9 20.8 9 14 C8.01 14.33 7.02 14.66 6 15 C3.84375 14.984375 3.84375 14.984375 1.5 14.75 C0.7265625 14.68296875 -0.046875 14.6159375 -0.84375 14.546875 C-3.36784958 13.90670482 -4.34858624 12.96899333 -6 11 C-5.34 10.67 -4.68 10.34 -4 10 C-3.34786708 7.97536745 -3.34786708 7.97536745 -3 6 C-2.01 6 -1.02 6 0 6 C0 4.02 0 2.04 0 0 Z " fill="#131313" transform="translate(24,0)"/>
<path d="M0 0 C5.28 0 10.56 0 16 0 C16 6.6 16 13.2 16 20 C10.72 20 5.44 20 0 20 C0 13.4 0 6.8 0 0 Z " fill="#686868" transform="translate(17,14)"/>
<path d="M0 0 C7.26 0 14.52 0 22 0 C22 16.5 22 33 22 50 C21.34 50 20.68 50 20 50 C19.9710663 46.20834926 19.95322399 42.41672673 19.9375 38.625 C19.92912109 37.54476562 19.92074219 36.46453125 19.91210938 35.3515625 C19.90888672 34.3203125 19.90566406 33.2890625 19.90234375 32.2265625 C19.89448853 30.79691162 19.89448853 30.79691162 19.88647461 29.33837891 C20 27 20 27 21 25 C20.21625 25.350625 19.4325 25.70125 18.625 26.0625 C17.325625 26.5265625 17.325625 26.5265625 16 27 C15.34 26.67 14.68 26.34 14 26 C14 24.35 14 22.7 14 21 C16.31 21 18.62 21 21 21 C20.7525 19.7315625 20.7525 19.7315625 20.5 18.4375 C19.98670712 14.90861144 19.92878654 11.56067311 20 8 C19.34 8 18.68 8 18 8 C18 7.34 18 6.68 18 6 C17.01 6 16.02 6 15 6 C15 6.66 15 7.32 15 8 C14.34 8 13.68 8 13 8 C13 9.32 13 10.64 13 12 C12.34 12 11.68 12 11 12 C11 11.34 11 10.68 11 10 C10.01 10.66 9.02 11.32 8 12 C6.68 12 5.36 12 4 12 C4 11.34 4 10.68 4 10 C3.34 10 2.68 10 2 10 C1.67 8.68 1.34 7.36 1 6 C0.01 6 -0.98 6 -2 6 C-2 5.01 -2 4.02 -2 3 C-1.34 3 -0.68 3 0 3 C0 2.01 0 1.02 0 0 Z " fill="#FCFCFC" transform="translate(28,0)"/>
<path d="M0 0 C7.92 0 15.84 0 24 0 C24 1.98 24 3.96 24 6 C23.01 6 22.02 6 21 6 C20.67 7.32 20.34 8.64 20 10 C19.34 10 18.68 10 18 10 C18 10.66 18 11.32 18 12 C13.25 11.125 13.25 11.125 11 10 C11 10.66 11 11.32 11 12 C10.34 12 9.68 12 9 12 C9 10.68 9 9.36 9 8 C8.34 8 7.68 8 7 8 C7 7.34 7 6.68 7 6 C6.01 6 5.02 6 4 6 C4 6.66 4 7.32 4 8 C3.34 8 2.68 8 2 8 C2 9.65 2 11.3 2 13 C1.34 13 0.68 13 0 13 C0 8.71 0 4.42 0 0 Z " fill="#FCFCFC" transform="translate(0,0)"/>
<path d="M0 0 C5.28 0 10.56 0 16 0 C16 4.62 16 9.24 16 14 C10.72 14 5.44 14 0 14 C0 9.38 0 4.76 0 0 Z " fill="#ECECEC" transform="translate(17,35)"/>
<path d="M0 0 C0.99 0 1.98 0 3 0 C3 0.66 3 1.32 3 2 C3.66 2 4.32 2 5 2 C5 3.32 5 4.64 5 6 C5.66 6 6.32 6 7 6 C7 5.34 7 4.68 7 4 C9.31 4.66 11.62 5.32 14 6 C12 8 12 8 8.375 8.125 C7.26125 8.08375 6.1475 8.0425 5 8 C5 12.29 5 16.58 5 21 C7.31 21 9.62 21 12 21 C12 23.31 12 25.62 12 28 C9.66705225 28.04241723 7.33297433 28.04092937 5 28 C4 27 4 27 3.9375 24.4375 C3.958125 23.633125 3.97875 22.82875 4 22 C1.69 21.67 -0.62 21.34 -3 21 C-3 20.34 -3 19.68 -3 19 C-0.69 19.33 1.62 19.66 4 20 C4 18.35 4 16.7 4 15 C1.69 15 -0.62 15 -3 15 C-3.07654536 10.48382401 -3.10228696 6.40914783 -2 2 C-1.34 2 -0.68 2 0 2 C0 1.34 0 0.68 0 0 Z " fill="#202020" transform="translate(4,6)"/>
<path d="M0 0 C0.66 0.66 1.32 1.32 2 2 C1.625 5.125 1.625 5.125 1 8 C3.31 8 5.62 8 8 8 C8 9.65 8 11.3 8 13 C5 14 5 14 2.8125 13.0625 C2.214375 12.711875 1.61625 12.36125 1 12 C1 12.66 1 13.32 1 14 C3.31 14.33 5.62 14.66 8 15 C8 16.98 8 18.96 8 21 C6.02 21 4.04 21 2 21 C2 26.28 2 31.56 2 37 C1.34 37 0.68 37 0 37 C0 24.79 0 12.58 0 0 Z " fill="#FDFDFD" transform="translate(0,13)"/>
<path d="M0 0 C1.98 0 3.96 0 6 0 C7.91154358 7.16828842 7.25695906 14.77248543 6 22 C4.02 21.67 2.04 21.34 0 21 C0 14.07 0 7.14 0 0 Z " fill="#636363" transform="translate(42,28)"/>
<path d="M0 0 C0.99 0.33 1.98 0.66 3 1 C3.33 1.99 3.66 2.98 4 4 C5.32 3.67 6.64 3.34 8 3 C8 5.31 8 7.62 8 10 C3.05 10 -1.9 10 -7 10 C-7 7.69 -7 5.38 -7 3 C-4.525 3.495 -4.525 3.495 -2 4 C-1.34 2.68 -0.68 1.36 0 0 Z " fill="#FBFBFB" transform="translate(24,38)"/>
<path d="M0 0 C2.31 0 4.62 0 7 0 C7 4.62 7 9.24 7 14 C4.69 14 2.38 14 0 14 C0 9.38 0 4.76 0 0 Z " fill="#F8F8F8" transform="translate(34,35)"/>
<path d="M0 0 C2.31 0 4.62 0 7 0 C7 4.62 7 9.24 7 14 C4.69 14 2.38 14 0 14 C0 9.38 0 4.76 0 0 Z " fill="#F6F6F6" transform="translate(9,35)"/>
<path d="M0 0 C5.28 0 10.56 0 16 0 C16 1.98 16 3.96 16 6 C10.72 6 5.44 6 0 6 C0 4.02 0 2.04 0 0 Z " fill="#D4D4D4" transform="translate(17,28)"/>
<path d="M0 0 C0.33 0 0.66 0 1 0 C1 11.88 1 23.76 1 36 C0.34 36 -0.32 36 -1 36 C-1.0289337 32.20834926 -1.04677601 28.41672673 -1.0625 24.625 C-1.07087891 23.54476562 -1.07925781 22.46453125 -1.08789062 21.3515625 C-1.09111328 20.3203125 -1.09433594 19.2890625 -1.09765625 18.2265625 C-1.10289307 17.27346191 -1.10812988 16.32036133 -1.11352539 15.33837891 C-1 13 -1 13 0 11 C-0.78375 11.350625 -1.5675 11.70125 -2.375 12.0625 C-3.24125 12.371875 -4.1075 12.68125 -5 13 C-5.66 12.67 -6.32 12.34 -7 12 C-7 10.35 -7 8.7 -7 7 C-4.69 7 -2.38 7 0 7 C-0.185625 6.030625 -0.37125 5.06125 -0.5625 4.0625 C-0.706875 3.051875 -0.85125 2.04125 -1 1 C-0.67 0.67 -0.34 0.34 0 0 Z " fill="#FDFDFD" transform="translate(49,14)"/>
<path d="M0 0 C2.31 0 4.62 0 7 0 C7 4.29 7 8.58 7 13 C4.69 13 2.38 13 0 13 C0 8.71 0 4.42 0 0 Z " fill="#BBBBBB" transform="translate(34,14)"/>
<path d="M0 0 C2.31 0 4.62 0 7 0 C7 4.29 7 8.58 7 13 C4.69 13 2.38 13 0 13 C0 8.71 0 4.42 0 0 Z " fill="#9D9D9D" transform="translate(9,14)"/>
<path d="M0 0 C3.27670187 0.91977596 4.50693456 1.22222618 7.5625 0 C7.5625 1.32 7.5625 2.64 7.5625 4 C6.5725 4 5.5825 4 4.5625 4 C4.5625 5.98 4.5625 7.96 4.5625 10 C4.2325 10 3.9025 10 3.5625 10 C2.9025 7.36 2.2425 4.72 1.5625 2 C0.9025 2 0.2425 2 -0.4375 2 C-1.0975 4.64 -1.7575 7.28 -2.4375 10 C-2.7675 10 -3.0975 10 -3.4375 10 C-3.4375 8.02 -3.4375 6.04 -3.4375 4 C-4.4275 4 -5.4175 4 -6.4375 4 C-6.4375 2.68 -6.4375 1.36 -6.4375 0 C-3.4375 -1 -3.4375 -1 0 0 Z " fill="#676767" transform="translate(24.4375,37)"/>
<path d="M0 0 C0.33 0.66 0.66 1.32 1 2 C1.99 2.33 2.98 2.66 4 3 C4.84454356 6.37817425 5.10844919 8.67465243 4 12 C3.38125 11.814375 2.7625 11.62875 2.125 11.4375 C-0.04160178 10.76313824 -0.04160178 10.76313824 -2 12 C-2 8.7 -2 5.4 -2 2 C-1.34 2 -0.68 2 0 2 C0 1.34 0 0.68 0 0 Z " fill="#9C9C9C" transform="translate(44,7)"/>
<path d="M0 0 C0.66 0.33 1.32 0.66 2 1 C2 1.66 2 2.32 2 3 C2.66 3 3.32 3 4 3 C4 6.3 4 9.6 4 13 C2.68 12.67 1.36 12.34 0 12 C-0.33 11.01 -0.66 10.02 -1 9 C-1.66 9 -2.32 9 -3 9 C-2.67 6.69 -2.34 4.38 -2 2 C-1.34 2 -0.68 2 0 2 C0 1.34 0 0.68 0 0 Z " fill="#6B6B6B" transform="translate(4,6)"/>
<path d="M0 0 C1.32 0 2.64 0 4 0 C4 4.62 4 9.24 4 14 C2.68 14 1.36 14 0 14 C0 9.38 0 4.76 0 0 Z " fill="#EDEDED" transform="translate(42,35)"/>
<path d="M0 0 C1.32 0 2.64 0 4 0 C4 4.62 4 9.24 4 14 C2.68 14 1.36 14 0 14 C0 9.38 0 4.76 0 0 Z " fill="#EFEFEF" transform="translate(4,35)"/>
<path d="M0 0 C1.98 0 3.96 0 6 0 C6 0.99 6 1.98 6 3 C7.65 3.33 9.3 3.66 11 4 C11 4.66 11 5.32 11 6 C7.89936477 7.03354508 5.68555932 7.13364996 2.4375 7.125 C1.46683594 7.12757812 0.49617188 7.13015625 -0.50390625 7.1328125 C-3 7 -3 7 -5 6 C-5 5.34 -5 4.68 -5 4 C-3.35 3.67 -1.7 3.34 0 3 C0 2.01 0 1.02 0 0 Z " fill="#7A7A7A" transform="translate(22,22)"/>
<path d="M0 0 C2.31 0 4.62 0 7 0 C7 1.98 7 3.96 7 6 C4.69 6 2.38 6 0 6 C0 4.02 0 2.04 0 0 Z " fill="#C6C6C6" transform="translate(9,28)"/>
<path d="M0 0 C2.31 0 4.62 0 7 0 C7 1.98 7 3.96 7 6 C4.69 6 2.38 6 0 6 C0 4.02 0 2.04 0 0 Z " fill="#C8C8C8" transform="translate(34,28)"/>
<path d="M0 0 C2.31 0 4.62 0 7 0 C7 1.98 7 3.96 7 6 C4.69 6 2.38 6 0 6 C0 4.02 0 2.04 0 0 Z " fill="#B9B9B9" transform="translate(9,21)"/>
<path d="M0 0 C2.97 0.495 2.97 0.495 6 1 C6 2.98 6 4.96 6 7 C4.02 7 2.04 7 0 7 C-1.04449911 3.86650268 -0.93423645 3.01031744 0 0 Z " fill="#9A9A9A" transform="translate(2,27)"/>
<path d="M0 0 C2.64 0 5.28 0 8 0 C8 1.32 8 2.64 8 4 C4.7 4 1.4 4 -2 4 C-1.34 3.67 -0.68 3.34 0 3 C0 2.01 0 1.02 0 0 Z " fill="#939393" transform="translate(20,29)"/>
<path d="M0 0 C0.66 0 1.32 0 2 0 C2 4.62 2 9.24 2 14 C1.01 14.495 1.01 14.495 0 15 C-0.84888195 9.62374766 -1.0024305 5.34629602 0 0 Z " fill="#656565" transform="translate(2,35)"/>
<path d="M0 0 C1.98 0 3.96 0 6 0 C5.67 1.65 5.34 3.3 5 5 C4.01 5.33 3.02 5.66 2 6 C1.34 5.67 0.68 5.34 0 5 C0 3.35 0 1.7 0 0 Z " fill="#A9A9A9" transform="translate(42,21)"/>
<path d="M0 0 C1.98 0 3.96 0 6 0 C6 1.65 6 3.3 6 5 C5.01 5.33 4.02 5.66 3 6 C2.01 5.34 1.02 4.68 0 4 C0 2.68 0 1.36 0 0 Z " fill="#ABABAB" transform="translate(2,21)"/>
<path d="M0 0 C2.31 0 4.62 0 7 0 C6.01 0.495 6.01 0.495 5 1 C5 1.99 5 2.98 5 4 C5.66 4.33 6.32 4.66 7 5 C4.69 5 2.38 5 0 5 C0 3.35 0 1.7 0 0 Z " fill="#DBDBDB" transform="translate(17,21)"/>
<path d="M0 0 C2.31 0 4.62 0 7 0 C7 1.65 7 3.3 7 5 C5.02 5 3.04 5 1 5 C1.33 3.68 1.66 2.36 2 1 C1.34 0.67 0.68 0.34 0 0 Z " fill="#D8D8D8" transform="translate(26,21)"/>
<path d="M0 0 C4.29 0 8.58 0 13 0 C12.67 1.65 12.34 3.3 12 5 C11.67 3.68 11.34 2.36 11 1 C6.19606778 1.30713684 6.19606778 1.30713684 2.125 3.5625 C1.75375 4.036875 1.3825 4.51125 1 5 C0.67 5 0.34 5 0 5 C0 3.35 0 1.7 0 0 Z " fill="#E1E1E1" transform="translate(17,14)"/>
<path d="M0 0 C-0.33 3.63 -0.66 7.26 -1 11 C-1.33 11 -1.66 11 -2 11 C-2 9.02 -2 7.04 -2 5 C-2.99 5 -3.98 5 -5 5 C-5 3.68 -5 2.36 -5 1 C-2 0 -2 0 0 0 Z " fill="#8B8B8B" transform="translate(23,36)"/>
<path d="M0 0 C2.31 0 4.62 0 7 0 C7 0.66 7 1.32 7 2 C6.01 2 5.02 2 4 2 C3.67 2.99 3.34 3.98 3 5 C2.01 5 1.02 5 0 5 C0 3.35 0 1.7 0 0 Z " fill="#C2C2C2" transform="translate(34,14)"/>
<path d="M0 0 C0.268125 0.639375 0.53625 1.27875 0.8125 1.9375 C1.88667752 4.33131686 1.88667752 4.33131686 5 5 C5 5.66 5 6.32 5 7 C2.69 7 0.38 7 -2 7 C-1.34 4.69 -0.68 2.38 0 0 Z " fill="#575757" transform="translate(3,14)"/>
<path d="M0 0 C0.99 0 1.98 0 3 0 C3 1.65 3 3.3 3 5 C0.69 5 -1.62 5 -4 5 C-4 4.34 -4 3.68 -4 3 C-3.01 2.67 -2.02 2.34 -1 2 C-0.67 1.34 -0.34 0.68 0 0 Z " fill="#7B7B7B" transform="translate(38,16)"/>
<path d="M0 0 C0 1.98 0 3.96 0 6 C-1.98 6 -3.96 6 -6 6 C-5.34 5.67 -4.68 5.34 -4 5 C-4 3.68 -4 2.36 -4 1 C-2 0 -2 0 0 0 Z " fill="#A5A5A5" transform="translate(33,14)"/>
<path d="M0 0 C0.99 0 1.98 0 3 0 C3.185625 0.9590625 3.185625 0.9590625 3.375 1.9375 C3.684375 2.9584375 3.684375 2.9584375 4 4 C4.66 4.33 5.32 4.66 6 5 C5.34 6.32 4.68 7.64 4 9 C3.34 8.67 2.68 8.34 2 8 C1.60828247 6.34608154 1.27942455 4.67654729 1 3 C0.67 2.01 0.34 1.02 0 0 Z " fill="#3B3B3B" transform="translate(26,6)"/>
<path d="M0 0 C1.32 0 2.64 0 4 0 C3.67 1.98 3.34 3.96 3 6 C2.01 6 1.02 6 0 6 C0 4.02 0 2.04 0 0 Z " fill="#C9C9C9" transform="translate(42,28)"/>
<path d="M0 0 C0.33 0.66 0.66 1.32 1 2 C2.32 2 3.64 2 5 2 C5.33 1.34 5.66 0.68 6 0 C6 1.65 6 3.3 6 5 C4.02 5 2.04 5 0 5 C0 3.35 0 1.7 0 0 Z " fill="#E2E2E2" transform="translate(22,7)"/>
<path d="M0 0 C1.98 0 3.96 0 6 0 C6 0.99 6 1.98 6 3 C3.69 3.33 1.38 3.66 -1 4 C-0.67 2.68 -0.34 1.36 0 0 Z " fill="#A4A4A4" transform="translate(22,15)"/>
<path d="M0 0 C2.31 0.66 4.62 1.32 7 2 C5 4 5 4 1.375 4.125 C0.26125 4.08375 -0.8525 4.0425 -2 4 C-2 3.34 -2 2.68 -2 2 C-1.34 2 -0.68 2 0 2 C0 1.34 0 0.68 0 0 Z " fill="#323232" transform="translate(11,10)"/>
<path d="M0 0 C1.32 0 2.64 0 4 0 C4 1.65 4 3.3 4 5 C2.68 4.67 1.36 4.34 0 4 C0 2.68 0 1.36 0 0 Z " fill="#CDCDCD" transform="translate(4,14)"/>
<path d="M0 0 C0.33 0.66 0.66 1.32 1 2 C3.02463255 2.65213292 3.02463255 2.65213292 5 3 C5 3.66 5 4.32 5 5 C2.69 5 0.38 5 -2 5 C-1.34 3.35 -0.68 1.7 0 0 Z " fill="#535353" transform="translate(44,16)"/>
<path d="M0 0 C1.32 0 2.64 0 4 0 C4 0.99 4 1.98 4 3 C3.34 3 2.68 3 2 3 C2 3.99 2 4.98 2 6 C1.34 6 0.68 6 0 6 C0 4.02 0 2.04 0 0 Z " fill="#292929" transform="translate(24,0)"/>
</svg>
