<?xml version="1.0" encoding="UTF-8"?>
<svg version="1.1" xmlns="http://www.w3.org/2000/svg" width="50" height="50">
<path d="M0 0 C16.5 0 33 0 50 0 C50 16.5 50 33 50 50 C33.5 50 17 50 0 50 C0 33.5 0 17 0 0 Z " fill="#3F3F3F" transform="translate(0,0)"/>
<path d="M0 0 C16.5 0 33 0 50 0 C50 14.19 50 28.38 50 43 C49.34 43 48.68 43 48 43 C48 34.75 48 26.5 48 18 C47.01 18 46.02 18 45 18 C44.505 16.515 44.505 16.515 44 15 C41.98491642 14.26676204 41.98491642 14.26676204 40 14 C40 13.34 40 12.68 40 12 C38.68 12 37.36 12 36 12 C35.34 11.01 34.68 10.02 34 9 C30.91634129 8.7497843 30.91634129 8.7497843 28 9 C27.67 8.34 27.34 7.68 27 7 C25.68 7 24.36 7 23 7 C22.67 7.66 22.34 8.32 22 9 C19.69 9 17.38 9 15 9 C14.67 9.99 14.34 10.98 14 12 C12.68 12 11.36 12 10 12 C10 12.66 10 13.32 10 14 C9.360625 14.103125 8.72125 14.20625 8.0625 14.3125 C7.0415625 14.6528125 7.0415625 14.6528125 6 15 C5.67 15.99 5.34 16.98 5 18 C4.01 18 3.02 18 2 18 C2 26.25 2 34.5 2 43 C1.34 43 0.68 43 0 43 C0 28.81 0 14.62 0 0 Z " fill="#F8F8F8" transform="translate(0,0)"/>
<path d="M0 0 C16.5 0 33 0 50 0 C50 1.98 50 3.96 50 6 C33.5 6 17 6 0 6 C0 4.02 0 2.04 0 0 Z " fill="#FDFDFD" transform="translate(0,44)"/>
<path d="M0 0 C0.99 0 1.98 0 3 0 C3 7.59 3 15.18 3 23 C0.36 23 -2.28 23 -5 23 C-5 18.38 -5 13.76 -5 9 C-3.68 9 -2.36 9 -1 9 C-0.67 6.03 -0.34 3.06 0 0 Z " fill="#ACACAC" transform="translate(11,14)"/>
<path d="M0 0 C1.65 0.33 3.3 0.66 5 1 C4.67 7.93 4.34 14.86 4 22 C2.35 21.67 0.7 21.34 -1 21 C-1 15.72 -1 10.44 -1 5 C-1.66 5 -2.32 5 -3 5 C-3.33 6.32 -3.66 7.64 -4 9 C-4.33 7.35 -4.66 5.7 -5 4 C-6.32 3.67 -7.64 3.34 -9 3 C-5.71303767 2.20046862 -4.28976808 1.90341064 -1 3 C-0.67 2.01 -0.34 1.02 0 0 Z " fill="#515151" transform="translate(23,6)"/>
<path d="M0 0 C0.33 0 0.66 0 1 0 C2.12862175 5.36095333 2.09688221 10.55306686 2 16 C1.34 16 0.68 16 0 16 C0 17.32 0 18.64 0 20 C0.66 20.33 1.32 20.66 2 21 C-0.31 21 -2.62 21 -5 21 C-5.0810206 18.89646505 -5.13919907 16.79204048 -5.1875 14.6875 C-5.22230469 13.51574219 -5.25710938 12.34398437 -5.29296875 11.13671875 C-5 8 -5 8 -3.5625 6.25 C-2.7890625 5.63125 -2.7890625 5.63125 -2 5 C-0.80972016 2.40084462 -0.80972016 2.40084462 0 0 Z " fill="#777777" transform="translate(20,22)"/>
<path d="M0 0 C1.98 0.66 3.96 1.32 6 2 C6.45496035 7.76283104 4.79099852 12.60568303 3 18 C1.68 18 0.36 18 -1 18 C-1.02684312 15.18743719 -1.04676188 12.37512759 -1.0625 9.5625 C-1.07087891 8.76005859 -1.07925781 7.95761719 -1.08789062 7.13085938 C-1.0965143 5.08704779 -1.0522815 3.04316098 -1 1 C-0.67 0.67 -0.34 0.34 0 0 Z " fill="#7F7F7F" transform="translate(16,9)"/>
<path d="M0 0 C0.33 0 0.66 0 1 0 C1.33 5.94 1.66 11.88 2 18 C2 17.34 2 16.68 2 16 C2 14.33333333 2 12.66666667 2 11 C3.32 10.67 4.64 10.34 6 10 C7.30267176 15.50016964 6.71033431 20.47032059 6 26 C4.02 26 2.04 26 0 26 C0 17.42 0 8.84 0 0 Z " fill="#B2B2B2" transform="translate(28,11)"/>
<path d="M0 0 C2.31 0.33 4.62 0.66 7 1 C7 4.96 7 8.92 7 13 C6.01 13 5.02 13 4 13 C3.67 11.68 3.34 10.36 3 9 C2.67 12.3 2.34 15.6 2 19 C1.34 19 0.68 19 0 19 C0 12.73 0 6.46 0 0 Z " fill="#CBCBCB" transform="translate(36,14)"/>
<path d="M0 0 C0.33 0.99 0.66 1.98 1 3 C2.32 3 3.64 3 5 3 C5 3.66 5 4.32 5 5 C6.65 5.33 8.3 5.66 10 6 C9.67 7.98 9.34 9.96 9 12 C8.67 12 8.34 12 8 12 C8 10.02 8 8.04 8 6 C7.01 6 6.02 6 5 6 C4.67 6.99 4.34 7.98 4 9 C4 7.68 4 6.36 4 5 C3.01 5 2.02 5 1 5 C0.7525 5.804375 0.505 6.60875 0.25 7.4375 C-0.1625 8.283125 -0.575 9.12875 -1 10 C-2.32 10.33 -3.64 10.66 -5 11 C-5 7.7 -5 4.4 -5 1 C-5.66 0.67 -6.32 0.34 -7 0 C-3.89953913 -1.03348696 -2.94389782 -1.17755913 0 0 Z " fill="#686868" transform="translate(35,9)"/>
<path d="M0 0 C0.33 0.99 0.66 1.98 1 3 C5.29 3 9.58 3 14 3 C13.01 3.33 12.02 3.66 11 4 C11 5.65 11 7.3 11 9 C7.04 9 3.08 9 -1 9 C-0.67 6.03 -0.34 3.06 0 0 Z " fill="#262626" transform="translate(29,34)"/>
<path d="M0 0 C0.33 0.66 0.66 1.32 1 2 C1.99 2 2.98 2 4 2 C4 3.98 4 5.96 4 8 C1.36 8 -1.28 8 -4 8 C-4 6.02 -4 4.04 -4 2 C-2.68 2 -1.36 2 0 2 C0 1.34 0 0.68 0 0 Z " fill="#636363" transform="translate(10,35)"/>
<path d="M0 0 C0.33 1.32 0.66 2.64 1 4 C2.32 4 3.64 4 5 4 C5 6.97 5 9.94 5 13 C3.35 12.67 1.7 12.34 0 12 C0 8.04 0 4.08 0 0 Z " fill="#121212" transform="translate(22,15)"/>
<path d="M0 0 C0.33 0 0.66 0 1 0 C1 1.65 1 3.3 1 5 C1.99 5 2.98 5 4 5 C4.33 4.01 4.66 3.02 5 2 C4.67 4.97 4.34 7.94 4 11 C2.35 11 0.7 11 -1 11 C-1.02688151 9.35425434 -1.04634123 7.70838587 -1.0625 6.0625 C-1.07410156 5.14597656 -1.08570313 4.22945312 -1.09765625 3.28515625 C-1 1 -1 1 0 0 Z " fill="#454545" transform="translate(39,22)"/>
<path d="M0 0 C0.99 0.33 1.98 0.66 3 1 C3 3.64 3 6.28 3 9 C0.69 9 -1.62 9 -4 9 C-4 7.35 -4 5.7 -4 4 C-3.01 3.67 -2.02 3.34 -1 3 C-0.67 2.01 -0.34 1.02 0 0 Z " fill="#989898" transform="translate(44,34)"/>
<path d="M0 0 C2.31 0 4.62 0 7 0 C6.01 0.495 6.01 0.495 5 1 C5 2.32 5 3.64 5 5 C5.66 5.33 6.32 5.66 7 6 C4.69 6 2.38 6 0 6 C0 4.02 0 2.04 0 0 Z " fill="#6C6C6C" transform="translate(15,37)"/>
<path d="M0 0 C0 1.65 0 3.3 0 5 C-2.31 5 -4.62 5 -7 5 C-6.625 3.0625 -6.625 3.0625 -6 1 C-4 0 -4 0 0 0 Z " fill="#9E9E9E" transform="translate(38,38)"/>
<path d="M0 0 C0.99 0 1.98 0 3 0 C3.33 1.98 3.66 3.96 4 6 C3.01 6.33 2.02 6.66 1 7 C0.34 6.67 -0.32 6.34 -1 6 C-1.042721 4.33388095 -1.04063832 2.66617115 -1 1 C-0.67 0.67 -0.34 0.34 0 0 Z " fill="#9B9B9B" transform="translate(31,21)"/>
<path d="M0 0 C0 1.32 0 2.64 0 4 C-2.64 4 -5.28 4 -8 4 C-7.67 3.01 -7.34 2.02 -7 1 C-4 0 -4 0 0 0 Z " fill="#989898" transform="translate(14,33)"/>
<path d="M0 0 C1.32 0 2.64 0 4 0 C4 1.98 4 3.96 4 6 C2.68 6 1.36 6 0 6 C0 4.02 0 2.04 0 0 Z " fill="#D3D3D3" transform="translate(23,8)"/>
<path d="M0 0 C0.99 0.33 1.98 0.66 3 1 C3 2.65 3 4.3 3 6 C1.68 6 0.36 6 -1 6 C-1.042721 4.33388095 -1.04063832 2.66617115 -1 1 C-0.67 0.67 -0.34 0.34 0 0 Z " fill="#C8C8C8" transform="translate(24,20)"/>
<path d="M0 0 C0.99 0.33 1.98 0.66 3 1 C3 2.65 3 4.3 3 6 C1.68 6 0.36 6 -1 6 C-1.042721 4.33388095 -1.04063832 2.66617115 -1 1 C-0.67 0.67 -0.34 0.34 0 0 Z " fill="#C5C5C5" transform="translate(7,15)"/>
<path d="M0 0 C1.98 0 3.96 0 6 0 C5.25 1.9375 5.25 1.9375 4 4 C1.875 4.75 1.875 4.75 0 5 C0 3.35 0 1.7 0 0 Z " fill="#626262" transform="translate(28,38)"/>
<path d="M0 0 C2.31 0 4.62 0 7 0 C7 0.99 7 1.98 7 3 C4.69 3 2.38 3 0 3 C0 2.01 0 1.02 0 0 Z " fill="#A5A5A5" transform="translate(36,34)"/>
<path d="M0 0 C1.98 0.495 1.98 0.495 4 1 C4 2.32 4 3.64 4 5 C2.35 5 0.7 5 -1 5 C-0.67 3.35 -0.34 1.7 0 0 Z " fill="#8C8C8C" transform="translate(39,28)"/>
<path d="M0 0 C1.32 0 2.64 0 4 0 C4 1.65 4 3.3 4 5 C2.68 5 1.36 5 0 5 C0 3.35 0 1.7 0 0 Z " fill="#999999" transform="translate(6,38)"/>
<path d="M0 0 C0.99 0 1.98 0 3 0 C3 1.65 3 3.3 3 5 C1.68 5 0.36 5 -1 5 C-0.67 3.35 -0.34 1.7 0 0 Z " fill="#CACACA" transform="translate(16,22)"/>
</svg>
