<?xml version="1.0" encoding="UTF-8"?>
<svg version="1.1" xmlns="http://www.w3.org/2000/svg" width="50" height="50">
<path d="M0 0 C16.5 0 33 0 50 0 C50 16.5 50 33 50 50 C33.5 50 17 50 0 50 C0 33.5 0 17 0 0 Z " fill="#0F0F0F" transform="translate(0,0)"/>
<path d="M0 0 C16.5 0 33 0 50 0 C50 7.92 50 15.84 50 24 C49.01 24 48.02 24 47 24 C46.505 22.515 46.505 22.515 46 21 C42.7 20.67 39.4 20.34 36 20 C36 18.35 36 16.7 36 15 C35.505 14.505 35.505 14.505 35 14 C35 12.00387907 35.00258336 10.00763383 35.03125 8.01171875 C34.99808428 5.87667548 34.67547226 4.02641679 34 2 C33.34 2 32.68 2 32 2 C31.01751476 6.0527516 30.91840426 9.83861737 31 14 C27.04 14 23.08 14 19 14 C19.020625 12.7625 19.04125 11.525 19.0625 10.25 C19.06766681 7.3359175 18.93015558 4.79046673 18 2 C17.34 2 16.68 2 16 2 C15.2654134 5.03016971 15 7.60858182 15 10.75 C15 11.8225 15 12.895 15 14 C14.67 14.33 14.34 14.66 14 15 C14 16.65 14 18.3 14 20 C9.05 20.495 9.05 20.495 4 21 C3.67 21.99 3.34 22.98 3 24 C2.01 24 1.02 24 0 24 C0 16.08 0 8.16 0 0 Z " fill="#FAFAFA" transform="translate(0,0)"/>
<path d="M0 0 C2.97 0 5.94 0 9 0 C9 0.66 9 1.32 9 2 C6.69 2 4.38 2 2 2 C2 2.66 2 3.32 2 4 C3.65 4 5.3 4 7 4 C7 4.99 7 5.98 7 7 C8.32 7 9.64 7 11 7 C11 6.01 11 5.02 11 4 C11.99 4 12.98 4 14 4 C14 12.25 14 20.5 14 29 C-2.5 29 -19 29 -36 29 C-36 20.75 -36 12.5 -36 4 C-35.01 4 -34.02 4 -33 4 C-33 4.99 -33 5.98 -33 7 C-33.33 7.33 -33.66 7.66 -34 8 C-30.04 8 -26.08 8 -22 8 C-22 8.66 -22 9.32 -22 10 C-25.63 10 -29.26 10 -33 10 C-33 15.61 -33 21.22 -33 27 C-18.48 27 -3.96 27 11 27 C9.86298403 25.63467451 9.86298403 25.63467451 6.83984375 25.90234375 C5.55207031 25.91394531 4.26429687 25.92554687 2.9375 25.9375 C1.64714844 25.94652344 0.35679688 25.95554687 -0.97265625 25.96484375 C-1.97167969 25.97644531 -2.97070312 25.98804687 -4 26 C-4 24.02 -4 22.04 -4 20 C-3.01 20 -2.02 20 -1 20 C-1 19.67 -1 19.34 -1 19 C-1.99 19 -2.98 19 -4 19 C-4 15.04 -4 11.08 -4 7 C-2.68 7 -1.36 7 0 7 C0 4.69 0 2.38 0 0 Z " fill="#F5F5F5" transform="translate(36,21)"/>
<path d="M0 0 C2.97 0 5.94 0 9 0 C9 0.66 9 1.32 9 2 C6.69 2 4.38 2 2 2 C2 2.66 2 3.32 2 4 C3.65 4 5.3 4 7 4 C7 4.99 7 5.98 7 7 C8.98 7 10.96 7 13 7 C12.67 7.66 12.34 8.32 12 9 C8.04 8.67 4.08 8.34 0 8 C0 8.66 0 9.32 0 10 C3.3 10 6.6 10 10 10 C10 15.28 10 20.56 10 26 C5.38 26 0.76 26 -4 26 C-4 24.02 -4 22.04 -4 20 C-3.01 20 -2.02 20 -1 20 C-1 19.67 -1 19.34 -1 19 C-1.99 19 -2.98 19 -4 19 C-4 15.04 -4 11.08 -4 7 C-2.68 7 -1.36 7 0 7 C0 4.69 0 2.38 0 0 Z " fill="#1E1E1E" transform="translate(36,21)"/>
<path d="M0 0 C5.28 0 10.56 0 16 0 C16 4.29 16 8.58 16 13 C10.72 13 5.44 13 0 13 C0 8.71 0 4.42 0 0 Z " fill="#A9A9A9" transform="translate(15,15)"/>
<path d="M0 0 C0.33 0 0.66 0 1 0 C1 3.63 1 7.26 1 11 C1.99 11 2.98 11 4 11 C4 8.36 4 5.72 4 3 C5.9078584 6.1749094 6.1609041 8.10585211 5.625 11.75 C5.51414063 12.54921875 5.40328125 13.3484375 5.2890625 14.171875 C5.14597656 15.07679687 5.14597656 15.07679687 5 16 C4.67 14.68 4.34 13.36 4 12 C3.01 12 2.02 12 1 12 C1 13.98 1 15.96 1 18 C5.62 18 10.24 18 15 18 C15 12.72 15 7.44 15 2 C15.33 2 15.66 2 16 2 C16 7.61 16 13.22 16 19 C1.81 19 -12.38 19 -27 19 C-27 18.67 -27 18.34 -27 18 C-21.39 18 -15.78 18 -10 18 C-10.04125 16.06125 -10.0825 14.1225 -10.125 12.125 C-10.1953125 8.8203125 -10.1953125 8.8203125 -10 6 C-9.34 5.34 -8.68 4.68 -8 4 C-5.4375 4.25 -5.4375 4.25 -3 5 C-1.67770811 7.64458379 -1.90322806 9.67761301 -1.9375 12.625 C-1.94652344 13.62789062 -1.95554687 14.63078125 -1.96484375 15.6640625 C-1.97644531 16.43492188 -1.98804687 17.20578125 -2 18 C-1.34 18 -0.68 18 0 18 C0 12.06 0 6.12 0 0 Z " fill="#2A2A2A" transform="translate(31,29)"/>
<path d="M0 0 C0.66 0 1.32 0 2 0 C2.33 0.99 2.66 1.98 3 3 C3.66 3.66 4.32 4.32 5 5 C4.34 5 3.68 5 3 5 C3 7.31 3 9.62 3 12 C6.96 12 10.92 12 15 12 C15 9.69 15 7.38 15 5 C14.34 4.67 13.68 4.34 13 4 C13.66 3.67 14.32 3.34 15 3 C15.33 2.01 15.66 1.02 16 0 C16.66 0 17.32 0 18 0 C18.12375 0.639375 18.2475 1.27875 18.375 1.9375 C18.58125 2.618125 18.7875 3.29875 19 4 C19.66 4.33 20.32 4.66 21 5 C20.34 5 19.68 5 19 5 C19 7.31 19 9.62 19 12 C20.32 12.33 21.64 12.66 23 13 C15.08 13 7.16 13 -1 13 C-1 14.65 -1 16.3 -1 18 C-0.01 18.33 0.98 18.66 2 19 C1.01 19 0.02 19 -1 19 C-1 21.31 -1 23.62 -1 26 C-1.33 26 -1.66 26 -2 26 C-2 23.69 -2 21.38 -2 19 C-4.97 19 -7.94 19 -11 19 C-11 19.99 -11 20.98 -11 22 C-8.69 22 -6.38 22 -4 22 C-4 22.33 -4 22.66 -4 23 C-6.31 23 -8.62 23 -11 23 C-11 23.99 -11 24.98 -11 26 C-11.66 26 -12.32 26 -13 26 C-13 25.01 -13 24.02 -13 23 C-13.99 22.67 -14.98 22.34 -16 22 C-15.01 22 -14.02 22 -13 22 C-12.67 20.68 -12.34 19.36 -12 18 C-8.7 18 -5.4 18 -2 18 C-2 16.35 -2 14.7 -2 13 C-2.99 12.67 -3.98 12.34 -5 12 C-3.68 12 -2.36 12 -1 12 C-1 9.69 -1 7.38 -1 5 C-1.66 4.67 -2.32 4.34 -3 4 C-2.34 3.67 -1.68 3.34 -1 3 C-0.67 2.01 -0.34 1.02 0 0 Z " fill="#090909" transform="translate(16,2)"/>
<path d="M0 0 C0.99 0 1.98 0 3 0 C3 0.99 3 1.98 3 3 C2.67 3.33 2.34 3.66 2 4 C5.96 4 9.92 4 14 4 C14 4.66 14 5.32 14 6 C10.37 6 6.74 6 3 6 C3.33 11.61 3.66 17.22 4 23 C24.295 23.495 24.295 23.495 45 24 C45 24.33 45 24.66 45 25 C30.15 25 15.3 25 0 25 C0 16.75 0 8.5 0 0 Z " fill="#F4F4F4" transform="translate(0,25)"/>
<path d="M0 0 C0.66 0 1.32 0 2 0 C2.33 1.98 2.66 3.96 3 6 C3.66 5.34 4.32 4.68 5 4 C7.625 4.375 7.625 4.375 10 5 C10.33 6.32 10.66 7.64 11 9 C11.99 9 12.98 9 14 9 C14 10.98 14 12.96 14 15 C9.38 15 4.76 15 0 15 C0 10.05 0 5.1 0 0 Z " fill="#E7E7E7" transform="translate(4,32)"/>
<path d="M0 0 C0.66 0 1.32 0 2 0 C2 4.95 2 9.9 2 15 C-2.62 15 -7.24 15 -12 15 C-12 13.02 -12 11.04 -12 9 C-11.01 9 -10.02 9 -9 9 C-8.34 7.35 -7.68 5.7 -7 4 C-2.125 4.875 -2.125 4.875 -1 6 C-0.67 4.02 -0.34 2.04 0 0 Z " fill="#E1E1E1" transform="translate(44,32)"/>
<path d="M0 0 C1.65 0 3.3 0 5 0 C5 1.65 5 3.3 5 5 C8.3 5 11.6 5 15 5 C15.33 6.32 15.66 7.64 16 9 C16.99 9.33 17.98 9.66 19 10 C18.01 10 17.02 10 16 10 C16 10.99 16 11.98 16 13 C14.68 13 13.36 13 12 13 C12 12.01 12 11.02 12 10 C10.35 10 8.7 10 7 10 C7 9.34 7 8.68 7 8 C9.31 8 11.62 8 14 8 C14 7.34 14 6.68 14 6 C11.03 6 8.06 6 5 6 C5 8.31 5 10.62 5 13 C3.35 13 1.7 13 0 13 C0 8.71 0 4.42 0 0 Z " fill="#525252" transform="translate(31,15)"/>
<path d="M0 0 C3.96 0 7.92 0 12 0 C12 5.94 12 11.88 12 18 C11.34 18 10.68 18 10 18 C9.93941406 17.22914062 9.87882812 16.45828125 9.81640625 15.6640625 C9.73261719 14.66117188 9.64882813 13.65828125 9.5625 12.625 C9.48128906 11.62726562 9.40007813 10.62953125 9.31640625 9.6015625 C9.15034374 7.02072387 9.15034374 7.02072387 8 5 C6.35 5.33 4.7 5.66 3 6 C2.67 9.96 2.34 13.92 2 18 C1.34 18 0.68 18 0 18 C0 12.06 0 6.12 0 0 Z " fill="#EAEAEA" transform="translate(19,29)"/>
<path d="M0 0 C3.96 0 7.92 0 12 0 C12 1.65 12 3.3 12 5 C8.04 5 4.08 5 0 5 C0 3.35 0 1.7 0 0 Z " fill="#EFEFEF" transform="translate(19,15)"/>
<path d="M0 0 C1.67542976 0.28604898 3.34385343 0.61781233 5 1 C5 3.97 5 6.94 5 10 C3.02 10 1.04 10 -1 10 C-1.02689216 8.52093108 -1.04634621 7.04172517 -1.0625 5.5625 C-1.07410156 4.73878906 -1.08570313 3.91507813 -1.09765625 3.06640625 C-1 1 -1 1 0 0 Z " fill="#F3F3F3" transform="translate(9,36)"/>
<path d="M0 0 C2.97 0 5.94 0 9 0 C9 2.31 9 4.62 9 7 C6.03 7 3.06 7 0 7 C0 4.69 0 2.38 0 0 Z " fill="#CFCFCF" transform="translate(5,21)"/>
<path d="M0 0 C0.99 0.33 1.98 0.66 3 1 C3 4.96 3 8.92 3 13 C1.68 13 0.36 13 -1 13 C-1.02686553 11.02090602 -1.04633375 9.04171029 -1.0625 7.0625 C-1.07410156 5.96035156 -1.08570312 4.85820313 -1.09765625 3.72265625 C-1 1 -1 1 0 0 Z " fill="#FAFAFA" transform="translate(24,34)"/>
<path d="M0 0 C2.475 0.495 2.475 0.495 5 1 C5 3.97 5 6.94 5 10 C3.35 10 1.7 10 0 10 C0 6.7 0 3.4 0 0 Z " fill="#FDFDFD" transform="translate(37,36)"/>
<path d="M0 0 C0.66 0 1.32 0 2 0 C2.12375 0.639375 2.2475 1.27875 2.375 1.9375 C2.684375 2.9584375 2.684375 2.9584375 3 4 C3.66 4.33 4.32 4.66 5 5 C4.34 5 3.68 5 3 5 C3 7.31 3 9.62 3 12 C1.68 12 0.36 12 -1 12 C-1 9.69 -1 7.38 -1 5 C-1.66 4.67 -2.32 4.34 -3 4 C-2.34 3.67 -1.68 3.34 -1 3 C-0.67 2.01 -0.34 1.02 0 0 Z " fill="#666666" transform="translate(32,2)"/>
<path d="M0 0 C0.66 0 1.32 0 2 0 C2.33 0.99 2.66 1.98 3 3 C3.66 3.66 4.32 4.32 5 5 C4.34 5 3.68 5 3 5 C3 7.31 3 9.62 3 12 C1.68 12 0.36 12 -1 12 C-1 9.69 -1 7.38 -1 5 C-1.66 4.67 -2.32 4.34 -3 4 C-2.34 3.67 -1.68 3.34 -1 3 C-0.67 2.01 -0.34 1.02 0 0 Z " fill="#666666" transform="translate(16,2)"/>
<path d="M0 0 C2.64 0 5.28 0 8 0 C8 1.32 8 2.64 8 4 C6.02 4.66 4.04 5.32 2 6 C1.67 8.31 1.34 10.62 1 13 C0.67 13 0.34 13 0 13 C0 8.71 0 4.42 0 0 Z " fill="#464646" transform="translate(6,32)"/>
<path d="M0 0 C2.97 0 5.94 0 9 0 C9 0.66 9 1.32 9 2 C6.69 2 4.38 2 2 2 C2 2.66 2 3.32 2 4 C3.65 4 5.3 4 7 4 C7 4.99 7 5.98 7 7 C4.69 7 2.38 7 0 7 C0 4.69 0 2.38 0 0 Z " fill="#DDDDDD" transform="translate(36,21)"/>
<path d="M0 0 C0.66 0 1.32 0 2 0 C2 0.99 2 1.98 2 3 C2.99 3.33 3.98 3.66 5 4 C4.01 4 3.02 4 2 4 C2 4.99 2 5.98 2 7 C0.68 7 -0.64 7 -2 7 C-2 6.01 -2 5.02 -2 4 C-3.65 4 -5.3 4 -7 4 C-7 3.34 -7 2.68 -7 2 C-4.69 2 -2.38 2 0 2 C0 1.34 0 0.68 0 0 Z " fill="#676767" transform="translate(45,21)"/>
<path d="M0 0 C0.99 0 1.98 0 3 0 C3 3.63 3 7.26 3 11 C2.01 11 1.02 11 0 11 C0 7.37 0 3.74 0 0 Z " fill="#FAFAFA" transform="translate(32,29)"/>
<path d="M0 0 C0.99 0 1.98 0 3 0 C3 3.63 3 7.26 3 11 C2.01 11 1.02 11 0 11 C0 7.37 0 3.74 0 0 Z " fill="#FAFAFA" transform="translate(15,29)"/>
<path d="M0 0 C3.96 0 7.92 0 12 0 C12 0.99 12 1.98 12 3 C8.04 2.67 4.08 2.34 0 2 C0 1.34 0 0.68 0 0 Z " fill="#CECECE" transform="translate(36,29)"/>
<path d="M0 0 C0.66 0 1.32 0 2 0 C2 0.99 2 1.98 2 3 C4.31 3 6.62 3 9 3 C9 3.33 9 3.66 9 4 C6.69 4 4.38 4 2 4 C2 4.99 2 5.98 2 7 C1.34 7 0.68 7 0 7 C0 6.01 0 5.02 0 4 C-0.99 3.67 -1.98 3.34 -3 3 C-2.01 3 -1.02 3 0 3 C0 2.01 0 1.02 0 0 Z " fill="#484848" transform="translate(3,21)"/>
<path d="M0 0 C2.31 0 4.62 0 7 0 C6.67 1.32 6.34 2.64 6 4 C4.02 4 2.04 4 0 4 C0 2.68 0 1.36 0 0 Z " fill="#D3D3D3" transform="translate(36,32)"/>
<path d="M0 0 C0.99 0 1.98 0 3 0 C3 2.31 3 4.62 3 7 C2.01 7 1.02 7 0 7 C0 4.69 0 2.38 0 0 Z " fill="#F0F0F0" transform="translate(32,21)"/>
<path d="M0 0 C0.99 0 1.98 0 3 0 C3 2.31 3 4.62 3 7 C2.01 7 1.02 7 0 7 C0 4.69 0 2.38 0 0 Z " fill="#F0F0F0" transform="translate(15,21)"/>
<path d="M0 0 C1.98 0 3.96 0 6 0 C5.67 1.32 5.34 2.64 5 4 C3.35 3.67 1.7 3.34 0 3 C0 2.01 0 1.02 0 0 Z " fill="#E2E2E2" transform="translate(8,32)"/>
</svg>
